<?xml version="1.0" standalone="no"?>
<!DOCTYPE svg PUBLIC "-//W3C//DTD SVG 20010904//EN"
 "http://www.w3.org/TR/2001/REC-SVG-20010904/DTD/svg10.dtd">
<svg version="1.0" xmlns="http://www.w3.org/2000/svg"
 width="1024.000000pt" height="1024.000000pt" viewBox="0 0 1024.000000 1024.000000"
 preserveAspectRatio="xMidYMid meet">

<g transform="translate(0.000000,1024.000000) scale(0.100000,-0.100000)"
fill="#000000" stroke="none">
<path d="M824 10231 c-2 -2 -4 -15 -4 -28 0 -19 -7 -24 -40 -29 -36 -6 -40
-10 -40 -35 0 -23 -5 -28 -27 -31 -24 -3 -28 -7 -28 -35 0 -25 -4 -33 -17 -33
-16 0 -18 -11 -18 -94 0 -86 2 -95 20 -101 16 -5 20 -15 20 -51 l0 -44 -140 0
-140 0 0 -33 c0 -31 -2 -33 -29 -29 -34 5 -56 -24 -48 -64 4 -22 1 -24 -34
-24 -39 0 -39 0 -39 -39 0 -39 -1 -40 -38 -43 -35 -3 -37 -5 -40 -40 -3 -33
-6 -37 -35 -40 -29 -3 -32 -6 -35 -40 -2 -29 -8 -38 -22 -38 -47 0 -49 -5 -44
-118 l4 -107 29 -9 c24 -8 31 -16 33 -40 3 -29 6 -31 41 -31 35 0 37 -2 37
-32 0 -32 2 -33 40 -33 44 0 46 -5 33 -83 l-6 -38 -101 2 -101 2 -3 -32 c-3
-25 -8 -31 -28 -31 l-24 0 0 -500 c0 -438 2 -500 15 -500 10 0 15 -10 15 -30
l0 -30 115 0 115 0 0 -64 c0 -63 1 -65 28 -68 21 -2 29 -11 38 -38 9 -29 17
-36 42 -38 17 -2 36 -10 42 -18 18 -21 178 -19 247 4 43 14 53 21 53 40 0 18
6 22 30 22 26 0 30 4 30 28 0 35 6 41 30 35 10 -3 20 -17 24 -34 l6 -29 107 0
108 0 0 -130 0 -130 -32 0 -33 0 0 -94 0 -95 -32 -3 -33 -3 0 -90 0 -90 -92
-3 -93 -3 0 125 0 125 -27 3 c-22 2 -30 10 -38 36 -7 24 -15 32 -32 32 -13 0
-23 6 -23 14 0 15 -21 26 -51 26 -14 0 -19 7 -19 25 0 13 -6 28 -14 32 -8 4
-16 22 -18 38 -3 26 -8 30 -35 33 -26 3 -32 8 -35 30 l-3 27 -110 0 -110 -1 0
-28 c-1 -27 -3 -29 -52 -33 l-52 -4 -3 33 c-3 32 -4 33 -55 36 l-53 3 0 -30
c0 -28 3 -31 30 -31 19 0 30 -5 31 -15 1 -8 2 -21 3 -27 0 -7 13 -14 29 -16
27 -3 27 -4 27 -78 l0 -74 40 0 40 0 2 58 c1 31 2 66 2 77 1 13 9 21 24 23 14
2 22 10 22 23 0 17 8 19 78 19 81 0 97 -5 97 -30 0 -8 10 -16 23 -18 20 -3 22
-9 22 -68 l0 -64 65 0 65 0 0 -34 c0 -32 3 -35 33 -38 l32 -3 0 -70 0 -70 -52
-3 -53 -3 0 -70 c0 -80 -5 -85 -75 -75 -42 7 -45 9 -45 37 l0 29 -70 0 -70 0
0 -35 0 -35 -65 0 c-65 0 -65 0 -65 29 0 24 -5 30 -29 34 -27 6 -30 11 -33 49
l-3 43 -52 3 -53 3 0 -715 0 -716 29 0 c28 0 30 -3 33 -42 3 -41 4 -42 38 -43
32 0 35 -3 38 -32 2 -25 8 -33 23 -33 16 0 19 -7 19 -50 0 -47 -2 -50 -25 -50
-22 0 -25 -4 -25 -40 l0 -40 -65 0 -65 0 0 -855 0 -855 75 0 75 0 0 -30 c0
-25 4 -30 25 -30 22 0 25 -4 25 -36 l0 -36 55 4 55 5 0 -44 0 -43 -125 0 -125
0 0 30 c0 27 -3 30 -30 30 l-30 0 0 -519 0 -519 100 5 100 6 0 -26 c0 -19 6
-26 22 -29 20 -3 23 -8 21 -40 -2 -33 1 -39 22 -44 34 -8 55 1 55 26 0 15 7
20 25 20 15 0 29 7 33 18 6 14 20 17 89 17 82 0 83 0 89 -28 4 -22 11 -27 35
-27 l29 0 0 -80 c0 -73 2 -80 20 -80 17 0 20 -7 20 -39 l0 -39 38 9 c20 5 76
9 124 9 82 0 87 -1 90 -23 2 -17 11 -23 36 -25 28 -3 32 -7 32 -32 0 -22 5
-29 23 -32 20 -3 22 -9 22 -58 0 -39 -4 -54 -13 -52 -8 1 -12 -16 -12 -62 0
-71 -5 -76 -68 -76 -70 0 -82 8 -82 51 l0 39 -93 0 -93 0 4 -39 c4 -38 3 -40
-30 -46 -18 -3 -64 -5 -103 -3 l-70 3 -3 58 -3 57 64 0 64 0 6 77 c3 42 4 81
1 85 -3 4 -27 8 -53 8 -48 0 -49 -1 -55 -35 -8 -39 -14 -40 -100 -29 -35 5
-46 11 -46 25 0 9 -6 19 -12 21 -8 3 -13 23 -13 51 l0 47 -52 0 c-50 0 -53 2
-53 25 0 21 -5 25 -30 25 -28 0 -30 -3 -30 -35 l0 -35 -75 0 -75 0 0 -75 0
-75 70 0 70 0 0 -35 c0 -32 2 -35 30 -35 l30 0 0 -71 c0 -106 -3 -109 -110
-109 l-90 0 0 -825 0 -825 2395 0 c2388 0 2395 0 2395 20 0 19 -7 20 -95 20
l-95 0 0 40 0 40 -95 0 -95 0 0 62 0 61 278 -6 c152 -4 339 -7 415 -7 l137 0
0 -35 0 -35 -235 0 -235 0 0 -30 0 -30 269 0 268 0 -4 23 c-3 13 4 32 16 46
13 15 19 32 15 43 -5 17 12 18 420 18 l426 0 0 -90 0 -90 -134 0 c-109 0 -138
-3 -150 -16 -9 -8 -16 -20 -16 -25 0 -5 845 -9 2180 -9 l2180 0 0 1045 c0 575
-3 1045 -7 1045 -5 0 -28 -10 -53 -22 -59 -28 -130 -109 -130 -148 0 -16 -5
-32 -10 -35 -21 -13 -8 135 21 247 7 29 15 38 39 43 16 3 32 15 35 24 4 13 20
20 55 25 l50 7 0 294 0 295 -35 0 c-26 0 -33 -3 -29 -15 4 -8 3 -26 0 -40 -5
-19 -13 -25 -34 -25 -57 0 -72 10 -72 46 l0 34 -75 0 -74 0 -3 -72 -3 -73 -75
0 -75 0 3 37 3 37 -88 3 -88 3 -3 112 -3 112 48 3 c48 3 48 3 45 36 l-3 32 50
0 c27 0 53 -4 56 -10 3 -5 15 -10 26 -10 14 0 19 -7 19 -29 0 -56 7 -61 76
-61 l64 0 0 39 c0 40 0 40 43 43 37 3 42 6 42 28 0 25 2 25 93 28 l92 3 0 164
0 165 -70 0 -70 0 0 -70 c0 -63 -2 -70 -20 -70 -17 0 -20 -7 -20 -45 l0 -45
-75 0 c-73 0 -75 1 -75 25 0 24 -2 25 -69 25 -80 0 -94 -11 -89 -67 l3 -38
-77 -3 c-73 -3 -78 -1 -78 18 0 13 -7 20 -20 20 -18 0 -20 7 -20 70 0 56 3 70
15 70 8 0 15 5 15 10 0 6 31 10 74 10 96 0 106 9 106 96 0 62 1 64 25 64 20 0
25 5 25 26 l0 26 73 -6 c39 -3 88 -6 107 -8 34 -3 35 -3 42 45 3 27 8 51 10
52 2 2 45 5 96 6 l92 3 0 975 0 976 -80 -3 -80 -4 0 -34 0 -35 -135 3 -135 3
0 -32 0 -33 -69 0 c-72 0 -81 6 -81 52 0 17 -6 19 -42 16 l-43 -3 0 65 0 64
53 -3 52 -2 0 40 0 41 40 0 40 0 0 40 0 40 100 0 100 0 0 -46 0 -47 61 7 c34
3 77 6 95 6 33 0 34 1 34 40 l0 40 45 0 45 0 0 240 0 240 -40 0 -40 0 0 -105
0 -105 -75 0 c-73 0 -75 1 -75 25 0 25 -1 25 -80 25 l-80 0 0 -35 0 -36 -92 3
-93 3 0 78 0 77 -92 0 -93 0 0 74 0 75 43 8 c40 8 42 11 45 46 l3 37 89 0 c99
0 100 -1 100 -76 l0 -44 80 0 80 0 0 30 0 30 60 0 60 0 0 46 0 45 -85 -3 c-76
-3 -85 -1 -85 15 0 12 -8 17 -26 17 -22 0 -25 3 -20 23 3 12 6 48 6 79 l0 57
43 3 c39 3 42 5 45 36 l3 32 105 0 104 0 0 -25 c0 -16 6 -25 15 -25 12 0 15
-16 15 -80 l0 -80 40 0 40 0 0 140 c0 77 -4 140 -9 140 -13 0 -21 -27 -14 -46
5 -13 -1 -15 -33 -12 -32 2 -40 7 -42 26 -3 21 -7 22 -118 22 l-114 0 0 -25
c0 -22 -4 -25 -40 -25 -39 0 -40 -1 -40 -35 0 -32 -2 -35 -30 -35 -36 0 -44
-21 -38 -105 l3 -55 -94 0 c-93 0 -95 0 -123 -32 -15 -17 -28 -35 -28 -40 0
-4 -9 -8 -20 -8 -13 0 -20 7 -20 19 0 36 -12 51 -40 51 -41 0 -58 -53 -19 -63
16 -4 20 -12 17 -34 -3 -28 -4 -28 -75 -31 -70 -3 -73 -4 -73 -27 0 -23 -4
-25 -42 -26 -54 -1 -112 2 -116 6 -2 2 -5 20 -7 40 -3 32 -1 36 25 41 21 5 29
13 32 34 5 34 -9 40 -89 40 -51 0 -52 0 -55 -32 l-3 -33 -87 -3 -88 -3 0 -34
c0 -19 -4 -35 -10 -35 -5 0 -10 -13 -10 -30 l0 -30 -75 0 -75 0 0 40 c0 38 2
40 30 40 27 0 30 3 30 30 0 29 1 30 50 30 l50 0 0 55 c0 53 -1 55 -27 55 -16
0 -38 3 -51 6 -19 5 -23 2 -28 -25 -4 -17 -10 -31 -15 -31 -5 0 -9 -13 -9 -30
0 -30 -1 -30 -57 -31 -32 -1 -75 -1 -95 0 l-38 2 0 -45 0 -46 -65 0 c-51 0
-65 -3 -65 -15 0 -8 -8 -15 -19 -15 -10 0 -33 -3 -50 -6 l-31 -7 0 51 0 52 29
-6 c28 -6 30 -4 33 27 3 34 3 34 63 39 60 5 60 5 65 40 l5 35 58 -3 57 -4 0
36 c0 34 -2 36 -40 42 -39 6 -40 7 -40 48 l0 42 57 -1 c39 0 58 4 59 13 1 6 2
28 3 47 l1 35 54 0 c64 0 86 -7 86 -26 0 -8 7 -14 15 -14 10 0 15 -10 15 -28
0 -26 2 -28 36 -24 25 3 38 10 41 23 4 14 15 19 43 19 50 0 75 -27 66 -74 -5
-28 -12 -35 -34 -38 -19 -2 -28 -9 -30 -25 -3 -21 0 -23 51 -23 36 0 59 5 67
15 13 16 57 20 76 7 7 -4 13 -16 15 -27 3 -12 14 -21 27 -23 17 -3 22 -10 22
-32 0 -51 9 -60 55 -60 38 0 44 3 47 23 3 19 10 22 56 25 45 3 52 6 52 24 0
19 -4 20 -57 15 -32 -3 -68 -8 -80 -12 -21 -7 -23 -4 -23 24 0 29 -2 31 -35
31 -32 0 -35 2 -35 30 l0 30 -60 0 -60 0 0 36 c0 36 -32 83 -56 84 -7 0 -14 7
-18 15 -3 10 -19 15 -47 15 -32 0 -42 -4 -46 -20 -9 -36 -47 -25 -69 20 l-19
40 -77 0 c-71 0 -78 -2 -78 -20 0 -15 -7 -20 -25 -20 -21 0 -25 -5 -25 -27 0
-26 -3 -28 -46 -29 -25 -1 -50 -6 -56 -12 -6 -6 -11 -35 -12 -66 -1 -52 -3
-56 -24 -56 -22 0 -23 -4 -21 -47 l3 -48 -62 -3 c-67 -3 -63 2 -66 -72 -1 -22
-5 -24 -38 -22 l-38 4 0 -79 c0 -43 4 -83 8 -90 4 -6 24 -14 45 -18 30 -6 37
-11 37 -31 0 -22 4 -24 50 -24 48 0 50 -1 50 -28 0 -15 5 -33 12 -40 9 -9 4
-12 -23 -12 -34 0 -35 -1 -31 -35 4 -32 7 -35 37 -35 53 0 65 9 65 46 l0 34
74 0 c41 0 78 5 81 10 9 15 42 12 49 -5 3 -9 18 -15 36 -15 30 0 31 -2 28 -37
l-3 -38 -87 -3 -87 -3 2 -27 2 -27 -97 -3 -97 -3 -3 38 c-3 33 -6 38 -28 38
-21 0 -26 -5 -28 -34 -2 -19 -1 -50 3 -68 5 -29 10 -33 35 -33 25 0 30 -4 30
-24 0 -21 6 -25 33 -28 24 -2 33 -8 35 -25 3 -22 8 -23 94 -23 105 0 164 -14
171 -41 4 -14 14 -19 42 -19 35 0 36 -1 30 -30 -6 -29 -5 -30 29 -30 32 0 35
-3 38 -32 2 -27 7 -33 26 -32 20 1 22 -4 22 -53 0 -49 2 -53 24 -53 22 0 23
-3 18 -47 -3 -26 -11 -54 -19 -61 -7 -7 -13 -20 -13 -28 0 -7 -8 -19 -19 -25
-16 -11 -17 -16 -6 -53 11 -37 25 -111 28 -143 0 -7 4 -10 9 -7 4 3 11 -8 14
-25 6 -26 11 -31 35 -31 22 0 32 6 39 24 9 23 25 30 112 43 28 4 38 10 40 26
3 20 10 22 71 25 l67 3 0 -81 0 -80 30 0 c27 0 30 -3 30 -30 l0 -30 95 0 c90
0 95 1 95 21 0 19 4 21 38 15 20 -3 56 -6 80 -6 40 0 42 -2 42 -29 0 -25 5
-30 44 -41 37 -10 45 -17 48 -38 2 -21 10 -28 38 -35 34 -8 36 -10 32 -43 l-4
-35 -92 3 -91 3 -3 33 -3 32 -85 0 -84 0 0 -31 c0 -18 -5 -49 -12 -70 -11 -38
-12 -39 -60 -39 l-48 0 0 35 0 35 -85 0 -85 0 0 -40 0 -40 -100 0 -100 0 0
-29 c0 -26 -4 -30 -32 -33 l-33 -3 -3 -67 -3 -68 51 0 50 0 0 35 0 35 55 0 55
0 0 -34 c0 -34 1 -35 48 -38 l47 -3 5 -50 6 -50 5 67 c3 37 7 69 9 72 3 2 27
6 54 8 37 3 51 9 56 23 9 25 22 27 201 32 l156 5 7 -32 c3 -18 6 -43 6 -55 0
-19 7 -23 46 -29 26 -3 64 -6 86 -6 22 0 40 -5 43 -12 2 -7 5 -51 7 -98 l4
-85 -163 1 -163 2 0 -29 c0 -26 -3 -29 -35 -29 -31 0 -35 -3 -40 -34 -4 -19
-5 -86 -3 -150 l3 -115 -100 -3 -100 -3 0 -177 1 -178 -33 0 c-37 0 -36 1 -33
-86 2 -68 -4 -74 -77 -74 -31 0 -33 -2 -33 -35 l0 -35 -56 0 c-66 0 -86 -15
-93 -73 -4 -22 -13 -43 -21 -47 -8 -4 -25 -12 -37 -18 -50 -26 -53 -20 -53 98
l0 110 35 0 35 0 2 58 c1 31 0 86 -1 121 l-3 63 32 -7 32 -7 -4 71 c-2 58 0
71 12 71 12 0 14 15 12 90 l-3 90 24 0 c38 0 46 60 31 213 l-6 57 -34 0 c-31
0 -34 -2 -35 -32 -1 -18 -1 -36 0 -41 0 -4 -5 -6 -11 -5 -8 2 -14 -11 -16 -34
l-3 -38 -88 0 -88 0 5 25 c4 25 4 25 -73 25 l-77 0 7 60 c6 53 5 60 -10 60
-13 0 -16 -7 -13 -29 5 -33 -9 -41 -69 -41 l-33 0 0 -75 0 -75 -130 0 -130 0
0 -80 0 -80 -125 0 -124 0 -3 -77 -3 -78 -107 -3 -108 -3 0 -34 c0 -31 -3 -34
-32 -37 -28 -3 -34 -8 -38 -33 -4 -22 -11 -31 -28 -33 -20 -3 -22 1 -22 37 0
29 -5 43 -19 50 -11 6 -21 26 -25 51 -5 30 -11 40 -25 40 -14 0 -22 14 -35 58
-9 32 -16 70 -16 85 0 22 -5 27 -25 27 -21 0 -25 5 -25 29 0 53 -23 135 -47
168 -16 22 -23 45 -23 77 0 38 -3 46 -18 46 -11 0 -24 14 -35 38 -21 48 -21
49 3 55 11 3 22 17 26 33 4 16 12 32 18 36 6 4 13 45 14 90 4 77 2 87 -24 126
-15 23 -34 42 -41 42 -7 0 -12 3 -11 8 4 15 -14 52 -26 52 -7 0 -22 8 -34 18
-19 17 -21 30 -23 175 -1 136 -4 163 -22 195 -11 20 -24 40 -30 44 -6 3 -10
25 -9 47 2 39 1 41 -28 41 -20 0 -30 5 -30 15 0 8 -7 33 -16 55 -13 31 -21 40
-40 40 -21 0 -24 4 -24 40 0 39 -1 40 -34 40 -32 0 -35 3 -38 32 -3 28 -8 34
-33 38 -23 4 -32 12 -40 38 -8 27 -14 32 -41 32 -28 0 -33 4 -39 30 -6 27 -10
30 -46 30 -37 0 -39 2 -39 30 0 30 -1 30 -55 30 -35 0 -65 6 -81 16 -21 14
-48 16 -192 12 l-167 -5 -43 29 c-46 32 -47 48 -2 48 38 0 60 9 60 26 0 10 13
14 41 14 32 0 42 4 46 20 4 13 17 21 42 25 20 3 44 10 54 16 13 7 17 5 17 -9
0 -37 22 -52 68 -45 36 5 42 9 42 29 0 17 6 24 20 24 10 0 24 8 29 18 9 15 12
15 21 2 5 -8 10 -34 10 -57 0 -41 1 -43 30 -43 27 0 30 -3 30 -30 0 -29 1 -30
51 -30 66 0 89 13 89 51 0 34 23 48 51 31 10 -7 41 -12 69 -12 47 0 50 2 50
25 0 14 -1 28 -2 33 -1 4 11 9 28 12 22 4 30 11 32 30 1 14 5 40 8 58 5 33 6
33 29 18 35 -23 180 -23 189 0 9 25 7 164 -3 164 -10 0 -19 40 -13 58 2 7 21
12 43 12 35 0 39 3 39 25 0 21 5 25 29 25 45 0 61 10 61 36 0 18 5 24 23 24
29 0 47 18 47 46 0 17 7 23 28 26 22 2 28 8 30 36 3 26 7 32 28 32 21 0 24 4
24 40 0 33 3 40 19 40 16 0 20 10 27 66 8 79 0 264 -13 273 -10 7 -33 57 -33
71 0 6 6 10 13 10 23 0 47 35 47 68 0 27 4 32 24 32 28 0 36 16 36 71 0 27 4
39 14 39 18 0 23 16 31 113 8 88 18 95 63 47 27 -27 35 -30 96 -30 l66 0 3
123 c3 188 -1 299 -12 310 -6 6 -11 25 -11 43 0 17 -9 43 -20 57 -35 45 -22
77 30 77 19 0 79 55 107 98 9 12 21 22 28 22 11 0 25 80 25 148 l0 25 -86 -7
c-96 -8 -168 10 -177 45 -4 14 -14 19 -36 19 -26 0 -31 4 -31 25 0 21 -6 26
-40 31 -30 5 -40 11 -40 26 0 20 -16 29 -54 32 -18 1 -26 8 -30 29 -5 24 -10
27 -45 27 -22 0 -42 4 -46 9 -3 6 -26 13 -51 17 l-45 6 20 22 c12 12 21 29 21
38 0 9 8 18 19 21 22 5 30 43 38 166 l5 84 -74 -7 c-120 -13 -292 -23 -300
-19 -5 2 -8 30 -8 62 0 42 -5 65 -19 82 -10 13 -26 39 -35 57 -9 17 -23 32
-31 32 -9 0 -15 10 -15 25 0 24 -3 25 -55 25 l-55 0 0 -74 c0 -65 -2 -74 -20
-79 -12 -3 -20 -14 -20 -26 0 -12 -6 -21 -14 -21 -7 0 -28 -3 -45 -6 -30 -6
-31 -6 -31 30 0 25 -5 36 -14 36 -21 0 -63 41 -67 65 -3 11 -14 21 -26 23 -16
2 -23 11 -25 35 -2 27 -8 33 -30 35 -22 3 -28 9 -28 27 0 17 -7 26 -22 30 -14
4 -31 22 -43 47 -11 23 -27 43 -35 45 -9 2 -21 18 -27 34 -7 18 -18 29 -31 29
-14 0 -21 9 -25 30 -5 21 -12 30 -27 30 -11 0 -20 5 -20 11 0 9 -56 69 -64 69
-2 0 -22 18 -45 40 -23 22 -48 40 -56 40 -8 0 -15 9 -15 20 0 17 -7 20 -39 20
-33 0 -40 4 -43 23 -3 19 -9 22 -53 22 -45 0 -50 2 -55 25 -5 23 -11 26 -70
31 -36 4 -172 7 -303 8 l-238 1 3 -77 c3 -71 5 -78 26 -83 13 -3 23 -8 23 -12
-3 -29 1 -37 19 -43 11 -3 20 -12 20 -20 0 -15 -183 -41 -230 -31 -17 3 -43 9
-60 12 -16 3 -35 12 -41 20 -6 8 -20 14 -30 14 -12 0 -19 9 -21 28 -2 22 -8
28 -35 30 -30 3 -33 6 -33 38 0 19 -1 34 -2 34 -2 0 -43 5 -93 11 -49 6 -106
12 -125 13 l-35 1 -3 -127 -3 -128 -74 0 c-67 0 -75 2 -75 19 0 11 -12 23 -29
31 -35 14 -96 10 -95 -7 1 -7 2 -61 3 -119 l1 -106 30 -11 c17 -6 30 -17 30
-23 0 -7 3 -20 6 -29 6 -15 -4 -16 -102 -11 -129 5 -114 3 -114 21 0 10 -10
15 -31 15 -22 0 -32 5 -36 20 -4 15 -14 20 -39 20 -18 0 -35 -3 -37 -7 -6 -10
-11 -129 -9 -205 2 -55 3 -58 28 -58 23 0 25 -3 22 -32 -3 -32 -4 -33 -54 -36
-43 -2 -53 -7 -57 -24 -6 -20 -10 -21 -115 -15 -60 4 -116 9 -125 13 -15 5
-17 -4 -17 -91 0 -88 2 -97 19 -102 11 -3 21 -15 23 -27 2 -15 11 -22 34 -24
27 -3 30 -6 26 -27 -3 -20 1 -25 24 -30 16 -4 41 -13 56 -21 14 -8 33 -14 41
-14 28 0 29 -19 2 -42 -14 -12 -25 -28 -25 -35 0 -7 -4 -13 -10 -13 -13 0 -70
-100 -70 -123 0 -10 -7 -20 -15 -23 -8 -3 -17 -21 -21 -39 -6 -36 -23 -45 -86
-45 l-37 0 -3 73 c-3 66 -5 72 -25 75 -19 3 -23 10 -23 43 0 37 -2 39 -30 39
-28 0 -30 3 -30 35 0 31 -3 35 -25 35 -14 0 -29 8 -35 20 -12 23 -45 38 -104
48 l-39 7 -1 95 c-1 86 -3 95 -21 98 -24 5 -35 20 -35 48 0 15 -9 23 -37 30
-37 9 -38 10 -41 62 l-3 52 34 0 c32 0 35 2 41 40 5 31 12 41 30 46 29 7 36
39 36 177 0 97 0 97 -25 97 -22 0 -25 4 -25 40 l0 40 -40 0 -40 0 0 40 c0 39
-1 40 -35 40 -29 0 -36 -4 -41 -25 -10 -40 1 -55 41 -55 34 0 35 -1 35 -40 0
-38 2 -40 30 -40 l30 0 0 -120 0 -120 -35 0 c-33 0 -34 -1 -29 -29 6 -29 6
-30 -42 -33 l-49 -3 -3 -47 -3 -48 -149 0 -149 0 -3 28 c-3 23 -8 27 -40 30
l-38 3 0 50 0 49 -40 0 -40 0 0 -40 c0 -36 -2 -40 -26 -40 -17 0 -28 -6 -31
-20 -5 -18 -14 -20 -87 -20 -78 0 -81 1 -94 27 -6 15 -12 42 -12 60 0 32 -1
33 -45 33 l-45 0 0 -49 c0 -47 -2 -50 -27 -53 -22 -2 -29 -9 -31 -30 -3 -28
-4 -28 -81 -28 l-78 0 -6 30 c-5 24 -12 30 -32 30 -14 0 -25 6 -26 13 -1 6 -2
19 -3 27 -2 8 -3 61 -4 118 l-2 102 -70 0 -70 0 0 75 0 75 -39 0 c-21 0 -53 3
-70 6 -31 6 -31 6 -31 -35 l0 -41 -95 0 c-56 0 -96 4 -96 10 -1 6 -3 15 -4 20
-1 6 -3 17 -4 25 -1 10 -12 15 -37 15 -36 0 -37 0 -31 34 6 35 5 35 -36 38
l-42 3 0 95 0 95 62 3 62 3 -6 46 c-6 46 -6 46 21 41 18 -4 29 -1 33 8 4 11
38 14 159 14 l154 0 0 -25 c0 -23 4 -25 45 -25 l45 0 0 40 0 40 -45 0 c-31 0
-45 4 -44 13 5 36 2 37 -171 37 l-170 0 0 70 c0 51 -4 70 -12 69 -7 -1 -73 -1
-145 0 l-133 1 0 70 0 70 -46 0 -45 0 3 48 3 47 65 0 c63 0 65 1 68 28 l3 27
-160 0 -161 0 0 -30 c0 -27 -3 -30 -30 -30 -27 0 -30 -4 -36 -41 -5 -29 -11
-39 -21 -35 -8 4 -18 6 -23 6 -5 0 -10 12 -12 28 -3 26 -6 27 -65 30 -59 3
-62 4 -65 30 l-3 27 -138 5 c-76 3 -141 3 -143 1z m406 -317 c6 -6 8 -51 4
-117 l-7 -107 -144 0 -143 0 0 90 c0 89 0 90 25 90 21 0 25 5 25 31 l0 32 115
-5 c63 -2 120 -9 125 -14z m388 -154 c4 -38 15 -50 50 -50 21 0 22 -3 22 -90
0 -89 0 -90 -25 -90 -20 0 -25 -5 -25 -25 l0 -25 -105 0 c-98 0 -105 1 -105
20 0 16 -7 20 -35 20 l-35 0 0 94 c0 53 4 98 10 101 6 3 10 24 10 46 l0 40
118 -3 117 -3 3 -35z m4385 -159 c104 -6 119 -9 132 -28 12 -17 30 -24 77 -29
47 -5 62 -11 65 -25 4 -14 15 -19 39 -19 28 0 36 -5 44 -25 5 -14 16 -25 24
-25 8 0 19 -6 23 -14 4 -7 18 -18 31 -25 12 -6 22 -20 22 -31 0 -12 10 -21 30
-25 21 -5 32 -14 36 -32 4 -13 17 -28 29 -33 13 -5 29 -22 36 -39 8 -17 22
-34 31 -37 10 -3 18 -14 18 -24 0 -24 -37 -15 -45 11 -4 10 -15 19 -27 19 -18
0 -76 27 -88 41 -13 15 -161 58 -217 64 -59 6 -63 5 -63 -15 0 -12 5 -31 11
-42 10 -19 9 -20 -12 -14 -13 3 -103 11 -200 17 -147 8 -197 8 -294 -5 -65 -8
-119 -17 -120 -18 -1 -2 -6 -13 -9 -25 l-7 -23 228 0 c126 0 267 -5 313 -11
47 -6 96 -11 110 -11 14 0 34 -6 45 -13 11 -7 35 -16 53 -19 17 -4 38 -16 45
-26 8 -11 28 -20 52 -22 30 -2 40 -7 39 -20 -1 -12 6 -16 27 -16 39 1 87 -21
94 -43 4 -12 16 -19 32 -19 15 0 36 -12 54 -31 18 -20 41 -32 66 -35 83 -11
83 -11 83 -54 0 -35 3 -40 24 -40 28 0 36 -21 36 -103 0 -56 2 -59 29 -70 29
-11 41 -31 41 -74 0 -13 11 -30 25 -39 24 -16 26 -41 2 -28 -7 4 -2 -4 10 -17
20 -22 23 -37 25 -139 2 -94 6 -115 18 -115 22 0 45 163 33 233 l-10 52 43 0
c34 0 44 4 49 20 4 12 15 20 30 20 25 0 28 9 40 93 4 26 12 47 19 47 6 0 98 1
204 2 l192 3 0 -36 c0 -21 -8 -47 -20 -62 -11 -14 -20 -32 -20 -41 0 -9 -8
-16 -19 -16 -20 0 -45 -23 -35 -33 3 -3 -11 -8 -32 -12 -74 -11 -119 -31 -122
-53 -3 -22 -3 -22 138 -37 55 -6 207 -53 232 -72 7 -5 32 -17 56 -28 23 -10
42 -24 42 -31 0 -8 11 -16 25 -20 14 -3 30 -15 36 -25 5 -11 18 -19 28 -19 10
0 21 -9 24 -20 3 -13 14 -20 30 -20 14 0 31 -9 39 -22 12 -18 26 -22 97 -26
66 -4 81 -7 77 -19 -3 -8 -6 -20 -6 -27 0 -22 -74 -39 -183 -41 -59 -1 -110
-5 -113 -7 -2 -3 -2 -24 2 -47 6 -36 11 -43 35 -48 24 -5 29 -11 29 -35 0 -21
6 -31 20 -35 11 -3 20 -11 20 -17 0 -6 8 -27 18 -46 31 -63 43 -114 39 -170
-2 -38 -6 -49 -11 -35 -4 11 -24 28 -44 38 -21 10 -46 31 -57 47 -11 17 -28
30 -38 30 -32 0 -57 20 -57 45 0 21 -5 25 -30 25 -23 0 -30 4 -30 20 0 11 -5
20 -11 20 -5 0 -15 14 -20 30 -7 20 -18 30 -31 30 -20 0 -20 -4 -13 -92 4 -50
4 -163 0 -250 -7 -137 -10 -162 -27 -181 -11 -12 -17 -17 -14 -11 3 7 -2 15
-11 18 -10 4 -14 4 -11 0 4 -3 -6 -17 -23 -31 -16 -14 -29 -31 -29 -38 0 -7
-20 -26 -45 -42 -25 -15 -45 -31 -45 -35 0 -13 -35 -9 -49 5 -7 6 -12 8 -11 2
5 -23 -1 -31 -22 -31 -13 0 -27 5 -31 10 -6 8 -10 7 -14 -3 -4 -11 -7 -11 -13
-1 -6 10 -12 10 -25 -3 -19 -19 -121 -25 -110 -7 4 7 -3 9 -19 6 -14 -3 -26
-1 -26 4 0 5 -7 7 -15 4 -10 -4 -15 0 -15 15 0 18 3 20 19 11 27 -14 40 -12
20 3 -28 21 -18 54 14 48 5 -1 6 3 2 9 -3 6 -11 8 -16 5 -5 -4 -9 1 -9 9 0 9
3 15 8 14 12 -3 57 14 64 26 12 18 9 23 -13 29 -13 4 -18 10 -14 17 10 16 -13
30 -47 30 -15 0 -30 5 -34 11 -4 8 -9 7 -15 -2 -6 -10 -9 -5 -9 14 0 20 -6 30
-19 34 -11 3 -22 16 -26 31 -7 28 -44 72 -61 72 -16 0 -24 -24 -24 -71 l0 -39
-59 0 c-54 0 -59 2 -65 25 -3 13 -15 29 -26 35 -11 6 -20 19 -20 30 0 10 -4
22 -10 25 -5 3 -10 44 -10 91 l0 85 30 6 c22 4 30 11 30 27 0 12 4 26 9 32 5
5 11 20 13 34 2 16 11 26 28 30 23 5 26 12 33 85 4 44 9 109 10 145 l2 65 -30
0 c-30 0 -30 0 -33 -62 -3 -55 -6 -63 -22 -63 -16 0 -20 -7 -20 -34 0 -18 -3
-54 -6 -79 -5 -37 -11 -47 -28 -49 -14 -2 -22 -12 -26 -32 -4 -21 -14 -33 -37
-43 l-32 -13 -7 47 c-7 50 2 415 12 471 6 32 6 32 -35 32 -39 0 -41 -2 -41
-30 0 -28 -2 -30 -41 -30 -32 0 -42 -4 -46 -20 -3 -13 -14 -20 -28 -20 -33 0
-55 -10 -55 -25 0 -12 -50 -25 -101 -25 -18 0 -28 -6 -32 -19 -5 -21 -7 -21
-232 -39 -138 -10 -265 -4 -265 13 0 16 -23 25 -66 25 -24 0 -34 -5 -34 -15 0
-9 -11 -20 -24 -25 -14 -5 -26 -19 -28 -32 -2 -15 -11 -24 -25 -26 -12 -2 -23
-13 -27 -25 -3 -13 -18 -27 -34 -33 -17 -6 -36 -24 -43 -40 -8 -16 -25 -31
-39 -34 -16 -4 -26 -14 -28 -28 -2 -15 -10 -22 -27 -22 -14 0 -25 -7 -28 -20
-3 -11 -22 -27 -44 -36 -21 -9 -48 -27 -61 -39 -25 -25 -62 -35 -133 -35 -42
0 -48 -3 -51 -22 -2 -19 -11 -24 -53 -30 -27 -4 -50 -6 -52 -4 -7 7 -7 542 0
610 7 65 12 79 28 83 13 4 19 14 19 35 0 22 6 31 21 35 12 4 22 17 26 34 4 22
11 29 28 29 23 0 35 22 35 68 0 22 7 26 47 22 15 -1 22 5 25 22 2 19 8 22 31
20 26 -3 28 0 25 25 l-3 28 -97 3 c-89 2 -98 5 -98 22 0 14 -9 21 -36 26 -53
10 -194 -1 -203 -15 -10 -15 -58 -41 -77 -41 -8 0 -14 -6 -14 -14 0 -8 -10
-16 -22 -18 -19 -2 -24 -10 -26 -40 l-3 -38 -146 0 c-153 0 -353 23 -365 43
-12 20 2 27 54 27 41 0 51 3 55 20 4 16 14 20 48 20 35 0 44 4 53 24 7 17 22
27 46 31 19 4 37 13 40 21 3 8 14 14 25 14 13 0 20 9 23 31 4 26 1 32 -26 43
-17 7 -37 20 -45 29 -7 10 -22 17 -33 17 -20 0 -23 6 -33 63 -6 37 -6 38 22
31 15 -4 32 -14 37 -21 7 -12 50 -15 260 -13 138 1 290 -1 339 -5 l87 -8 0 32
c0 27 3 31 28 31 51 0 73 11 70 34 -3 18 -15 23 -76 35 -62 12 -73 17 -78 37
-3 13 -14 26 -24 29 -21 7 -30 45 -30 130 0 72 -6 95 -26 95 -16 0 -34 31 -34
59 0 19 6 21 75 21 l75 0 0 -35 c0 -32 3 -36 31 -42 20 -4 34 -14 40 -29 4
-13 16 -24 24 -24 9 0 18 -7 21 -15 3 -8 22 -17 41 -21 24 -4 37 -14 43 -30 8
-19 17 -24 44 -24 43 0 66 9 66 25 0 7 7 16 16 19 15 6 472 9 519 3 11 -1 20
4 19 11 -1 6 -2 20 -2 31 -2 15 -13 19 -59 24 -36 4 -60 12 -65 21 -6 11 -24
16 -51 16 -23 0 -51 7 -61 15 -11 8 -28 15 -39 15 -10 0 -21 9 -24 20 -3 11
-11 20 -18 20 -20 0 -65 48 -65 70 0 19 6 20 108 19 59 0 160 -4 225 -8z
m-4403 -581 c0 -33 4 -50 13 -51 6 -1 63 0 125 1 l112 2 0 -81 0 -81 39 0 c33
0 40 4 43 23 3 21 7 22 83 21 l80 -1 5 -34 c5 -31 8 -34 43 -37 l37 -3 0 -190
0 -189 -40 0 c-38 0 -40 -2 -40 -30 l0 -30 -100 0 c-113 0 -102 -10 -103 97 0
74 -3 76 -131 68 l-86 -5 0 55 0 55 -115 0 -114 0 -3 -57 -3 -58 -137 -3 -138
-3 0 51 c0 49 -1 50 -30 50 l-30 0 0 65 0 64 -67 3 c-38 2 -67 6 -65 11 1 4 2
39 2 77 l0 70 65 0 65 0 0 75 0 75 105 0 c97 0 105 -1 105 -19 0 -20 32 -37
50 -26 5 3 10 24 10 46 l0 39 110 0 110 0 0 -50z m1980 -260 c0 -39 1 -40 35
-40 l35 0 0 -75 0 -75 -30 0 c-35 0 -45 -16 -32 -50 8 -22 13 -23 75 -21 l67
2 0 -32 c0 -31 0 -31 39 -25 51 8 71 0 71 -29 0 -19 6 -24 33 -27 25 -2 31 -7
29 -22 -7 -36 7 -66 31 -66 21 0 22 -4 22 -75 l0 -75 -67 0 -68 0 0 -60 0 -61
-72 3 -73 3 -3 53 -3 52 -63 0 c-70 0 -76 -6 -76 -77 l0 -33 -90 0 c-73 0 -90
3 -90 15 0 9 -9 15 -25 15 l-25 0 0 120 0 120 -32 1 c-18 1 -44 2 -58 3 -24 1
-25 4 -28 78 l-3 77 -72 3 -72 3 -3 53 -3 52 -50 0 -49 0 0 80 0 80 138 -2
137 -3 3 -32 c3 -31 6 -33 43 -33 39 0 39 0 39 40 0 38 1 40 31 40 29 0 31 2
27 30 l-5 30 119 0 118 0 0 -40z m-1040 -160 l0 -40 40 0 c37 0 40 2 40 29 0
36 12 41 111 41 l79 0 0 -35 c0 -31 3 -35 33 -40 l32 -6 -3 -95 -4 -94 85 0
85 0 11 -31 c6 -19 11 -104 11 -200 0 -162 -1 -169 -20 -169 -16 0 -20 -7 -20
-30 l0 -30 -62 0 c-35 0 -80 3 -100 6 -32 6 -38 11 -38 31 0 13 -7 26 -15 29
-8 4 -15 12 -15 19 0 15 -26 23 -52 17 -12 -3 -18 -14 -18 -32 0 -56 -6 -60
-86 -60 l-74 0 0 46 0 45 -42 -3 -43 -3 -5 125 -5 125 -52 -3 c-38 -3 -54 0
-57 10 -2 7 -7 97 -11 201 l-6 187 100 0 101 0 0 -40z m2302 -65 c-2 -16 -9
-77 -16 -135 -11 -96 -13 -105 -33 -108 -14 -2 -23 -12 -25 -25 -2 -15 -11
-23 -30 -25 -15 -2 -30 -11 -33 -21 -4 -13 -21 -21 -58 -27 -47 -8 -53 -12
-61 -41 -7 -23 -17 -33 -38 -37 -16 -3 -28 -12 -28 -21 0 -9 -9 -36 -20 -60
-16 -35 -18 -49 -10 -71 16 -42 4 -64 -36 -64 l-34 0 0 100 c0 60 4 100 10
100 6 0 10 26 10 58 0 71 8 102 26 102 9 0 14 12 14 38 0 26 6 41 19 49 13 8
21 26 23 50 2 32 6 38 23 35 16 -2 25 8 39 43 16 38 23 45 47 45 22 0 30 6 35
25 6 25 8 26 93 23 l86 -3 -3 -30z m-506 -457 c8 -12 6 -130 -2 -165 -4 -15
-11 -20 -22 -16 -10 4 -13 2 -8 -5 4 -7 1 -12 -8 -12 -9 0 -16 -3 -16 -7 0 -5
-12 -16 -26 -26 -18 -14 -28 -16 -38 -8 -7 6 -17 7 -21 3 -5 -4 -5 -1 -1 6 4
6 2 12 -3 12 -6 0 -11 7 -11 16 0 11 -5 14 -16 10 -15 -6 -15 -4 0 18 10 15
12 27 6 31 -6 3 -10 13 -10 21 0 8 5 12 10 9 7 -4 9 2 5 18 -5 17 -2 26 10 31
10 3 14 2 9 -5 -4 -8 -1 -8 14 0 21 11 38 46 34 69 -4 16 84 17 94 0z m-1532
-299 c13 -52 29 -119 35 -149 6 -30 20 -93 31 -140 40 -172 92 -411 136 -635
57 -287 70 -346 78 -365 3 -8 19 -85 36 -170 37 -196 100 -500 134 -650 33
-150 65 -307 80 -397 12 -68 11 -73 -6 -73 -10 0 -28 -10 -40 -22 -27 -27 -86
-58 -109 -58 -11 0 -19 -9 -21 -22 -2 -19 -12 -25 -50 -32 -35 -7 -48 -14 -48
-27 0 -19 -28 -29 -87 -29 -32 0 -43 4 -43 15 0 10 -14 17 -41 21 -26 4 -43
13 -46 23 -3 13 -15 15 -63 13 -44 -3 -61 0 -64 10 -2 7 -14 58 -26 113 -12
55 -30 138 -41 185 -10 47 -35 159 -54 250 -20 91 -56 255 -82 365 -25 110
-52 227 -59 260 -31 146 -44 202 -53 235 -6 19 -24 98 -41 175 -17 77 -38 168
-45 203 -8 34 -22 92 -30 130 -9 37 -27 112 -40 167 -14 55 -36 148 -50 207
-14 59 -39 149 -55 199 -29 87 -38 145 -22 137 51 -25 63 -35 68 -55 5 -17 13
-23 35 -23 24 0 29 -4 29 -23 0 -22 17 -36 62 -50 9 -3 18 -16 20 -29 2 -15
11 -24 26 -26 17 -3 22 -10 22 -33 0 -25 4 -29 28 -29 22 0 30 -7 39 -30 6
-16 18 -30 27 -30 9 0 16 -4 16 -9 0 -16 31 -41 50 -41 14 0 21 10 26 34 3 19
12 37 20 40 9 3 14 20 14 46 0 29 4 40 15 40 11 0 15 12 15 45 0 38 3 45 20
45 17 0 20 7 20 45 0 31 5 47 15 51 8 4 15 18 15 34 0 15 9 47 20 71 11 24 20
53 20 65 0 11 5 25 12 32 17 17 22 5 52 -109z m3712 36 c-7 -49 7 -145 23
-154 6 -4 15 -27 20 -52 23 -116 46 -179 63 -179 14 0 18 -8 18 -39 0 -31 4
-41 20 -46 14 -4 20 -15 20 -34 0 -16 7 -34 15 -41 8 -7 15 -19 15 -27 0 -8 5
-24 12 -36 6 -12 13 -40 14 -62 10 -128 57 -290 90 -312 16 -10 24 -25 24 -45
0 -16 4 -27 9 -24 12 8 24 -59 16 -85 -4 -12 -4 -36 0 -55 l6 -35 72 3 c70 3
72 4 75 31 3 24 8 27 38 27 19 0 35 5 35 10 2 11 5 25 9 38 1 4 2 10 1 15 0 4
10 7 24 7 24 0 25 -3 25 -60 0 -48 3 -60 16 -60 11 0 14 -8 12 -32 -3 -30 -8
-35 -50 -48 -44 -14 -48 -18 -48 -47 l0 -33 59 0 c50 0 62 -4 75 -21 14 -20
20 -21 93 -14 47 4 91 14 111 26 18 10 40 19 49 19 8 0 17 9 20 20 3 11 14 20
24 20 12 0 23 10 29 25 5 14 14 25 19 25 5 0 12 14 16 31 4 17 13 33 21 36 21
8 20 221 -1 229 -8 4 -15 12 -15 19 0 6 -9 20 -21 31 -17 16 -36 19 -103 18
-94 -1 -156 -23 -156 -54 0 -16 -7 -20 -30 -20 -23 0 -30 -4 -30 -20 0 -18 -5
-22 -27 -19 -7 0 -23 -35 -22 -47 1 -10 -24 -23 -33 -18 -5 3 -7 21 -6 40 2
28 6 34 23 32 16 -2 21 3 23 30 2 18 10 36 17 38 8 3 17 20 21 37 3 18 10 37
14 42 5 6 8 14 7 20 -1 5 12 12 28 15 24 4 29 10 27 27 -2 16 3 22 25 26 64
13 165 18 207 12 38 -6 47 -12 52 -32 4 -16 16 -26 35 -30 23 -4 29 -11 29
-32 0 -15 9 -34 20 -44 21 -18 23 -37 20 -222 -1 -67 -4 -82 -20 -94 -12 -8
-20 -25 -20 -43 0 -20 -6 -31 -18 -35 -10 -2 -27 -20 -37 -40 -11 -19 -30 -39
-42 -44 -15 -6 -23 -17 -23 -33 0 -21 -5 -25 -37 -28 -31 -2 -39 -7 -41 -25
-3 -19 -10 -23 -42 -23 -29 0 -43 -6 -55 -22 -14 -22 -22 -23 -123 -22 -176 1
-189 3 -195 25 -3 11 -14 19 -26 19 -14 0 -25 9 -31 25 -7 19 -17 25 -39 25
-26 0 -31 -4 -37 -35 -4 -26 -11 -35 -25 -35 -21 0 -44 -44 -33 -62 5 -8 -5
-9 -32 -5 -21 3 -34 3 -28 1 17 -7 4 -45 -15 -43 -35 3 -42 -1 -36 -20 3 -11
0 -23 -6 -27 -9 -5 -10 -2 -6 9 4 10 2 17 -5 17 -6 0 -19 9 -28 20 l-18 21
-15 -22 c-9 -11 -20 -18 -25 -15 -6 3 -13 -2 -17 -13 -4 -15 -14 -19 -40 -17
-30 3 -34 0 -37 -23 -2 -19 -9 -26 -24 -27 -12 -1 -35 -13 -50 -28 -16 -14
-32 -26 -37 -26 -4 0 -20 -9 -35 -20 -15 -10 -40 -21 -55 -23 -16 -2 -32 -9
-37 -16 -4 -8 -30 -16 -58 -19 -37 -3 -52 -9 -55 -22 -3 -12 -19 -19 -56 -23
-28 -3 -58 -13 -67 -22 -8 -8 -27 -15 -42 -15 -15 0 -61 -7 -102 -16 -47 -9
-171 -18 -335 -24 -143 -4 -270 -11 -281 -15 -16 -5 -23 -2 -27 14 -4 17 -13
21 -46 21 -34 0 -41 3 -41 20 0 16 -7 20 -34 20 -23 0 -44 9 -67 30 -19 16
-49 33 -66 36 -18 3 -33 12 -33 20 0 7 -11 16 -25 20 -13 3 -36 21 -50 40 -19
25 -34 34 -55 34 -24 0 -29 5 -32 27 -2 21 -10 29 -35 35 -22 6 -33 15 -35 30
-2 13 -17 32 -35 43 -37 23 -39 28 -19 48 21 21 4 39 -30 32 -22 -5 -25 -4
-14 4 10 7 11 11 3 11 -9 0 -10 7 -3 26 7 16 7 23 0 19 -6 -3 -10 -1 -10 6 0
6 -8 9 -20 6 -11 -3 -20 -2 -20 2 0 3 9 12 20 19 11 7 20 19 20 28 0 9 -5 12
-12 8 -8 -5 -9 -2 -5 10 8 21 -13 117 -30 134 -7 7 -13 27 -13 43 0 20 -4 28
-11 23 -9 -5 -10 1 -5 20 4 15 2 26 -4 26 -5 0 -10 7 -10 15 0 8 4 15 8 15 5
0 7 13 4 29 -3 21 2 33 18 44 16 11 22 26 23 61 0 25 4 46 8 46 3 0 9 20 12
45 6 54 5 53 40 57 38 6 47 22 47 93 0 72 15 131 35 139 8 3 15 11 15 18 1 28
67 79 110 85 49 7 60 -3 60 -59 0 -53 -8 -68 -40 -68 -32 0 -40 14 -40 73 l0
42 -22 -34 c-19 -29 -23 -52 -26 -150 -3 -101 -1 -122 17 -163 11 -27 25 -48
31 -48 5 0 10 -9 10 -20 0 -19 7 -20 105 -20 81 0 105 3 105 13 0 8 11 19 24
25 30 14 36 45 36 201 0 138 -5 171 -26 171 -7 0 -17 12 -20 26 -4 15 -14 34
-23 43 -9 9 -25 29 -36 44 -19 26 -28 29 -101 34 -73 5 -84 3 -120 -19 -21
-13 -47 -27 -56 -31 -11 -4 -18 -17 -18 -32 0 -20 -5 -25 -25 -25 -21 0 -25
-5 -25 -30 0 -16 -4 -30 -9 -30 -5 0 -15 -16 -21 -36 -20 -60 -30 -21 -30 121
l0 130 45 1 c27 1 53 8 64 18 22 20 104 22 123 3 17 -18 268 -33 268 -17 0 8
15 9 44 5 46 -7 183 11 201 27 5 4 23 8 41 8 18 0 34 5 36 11 2 6 52 15 111
22 86 8 108 14 112 28 5 13 21 18 81 21 59 3 78 7 85 21 6 10 22 17 41 17 27
0 109 22 148 40 8 3 54 19 103 34 55 18 87 33 87 42 0 8 10 14 23 14 12 0 45
12 72 26 28 14 75 38 105 54 51 26 56 27 68 12 9 -11 11 -31 8 -57z m-2386 35
c0 -5 -2 -10 -4 -10 -3 0 -8 5 -11 10 -3 6 -1 10 4 10 6 0 11 -4 11 -10z
m-2052 -19 c16 -10 6 -57 -13 -65 -14 -5 -35 -87 -35 -136 0 -19 -5 -30 -14
-30 -16 0 -26 -21 -26 -54 0 -21 -4 -22 -105 -24 l-105 -3 0 161 0 160 143 0
c78 0 148 -4 155 -9z m1802 -103 c1 -25 48 -67 83 -73 26 -5 37 -13 39 -28 4
-28 32 -35 156 -36 l102 -1 0 -100 c0 -93 1 -100 20 -100 17 0 20 -7 20 -51 0
-46 2 -51 29 -60 20 -7 30 -19 35 -40 4 -23 11 -29 30 -29 23 0 25 -4 28 -52
3 -49 5 -53 30 -56 18 -2 28 -11 32 -28 6 -21 12 -24 52 -24 l46 0 -6 -62
c-10 -121 -18 -158 -32 -158 -7 0 -16 -16 -19 -37 -4 -21 -11 -51 -16 -67 -5
-16 -9 -77 -9 -135 0 -87 4 -114 20 -146 11 -22 20 -54 20 -72 0 -26 4 -33 19
-33 15 0 21 -10 26 -40 5 -30 11 -40 25 -40 12 0 21 -10 25 -30 6 -27 20 -36
48 -31 4 1 10 -12 13 -28 5 -22 13 -30 34 -35 22 -4 29 -12 32 -33 2 -22 10
-30 35 -37 22 -7 36 -19 42 -38 8 -23 16 -28 45 -28 30 0 35 -3 38 -27 3 -25
7 -28 36 -26 29 1 34 -3 39 -28 5 -26 10 -29 43 -29 34 0 38 -3 44 -30 5 -28
8 -30 55 -30 44 0 50 -3 53 -22 2 -17 11 -24 33 -26 17 -2 44 -10 62 -18 17
-7 49 -14 72 -14 34 0 41 -3 41 -20 0 -19 -7 -20 -142 -20 -199 0 -308 -9
-308 -26 0 -10 -15 -14 -55 -14 -48 0 -55 -2 -55 -20 0 -17 -7 -20 -40 -20
-38 0 -40 -2 -40 -31 0 -30 -1 -31 -42 -27 -42 3 -43 2 -46 -29 -3 -26 -9 -33
-32 -38 -19 -4 -30 -14 -34 -31 -4 -15 -14 -24 -26 -24 -16 0 -20 -7 -20 -30
0 -29 -2 -30 -44 -30 -46 0 -56 -10 -56 -55 0 -19 -6 -24 -32 -27 -25 -2 -34
-8 -36 -25 -3 -17 -11 -23 -40 -25 -32 -3 -37 -7 -40 -30 -3 -27 -5 -28 -63
-28 -50 0 -66 -5 -95 -26 -34 -26 -34 -27 -34 -104 0 -74 -1 -79 -22 -82 -21
-3 -23 -9 -26 -64 l-3 -61 -46 -7 c-25 -3 -74 -6 -109 -6 -56 0 -64 -2 -64
-19 0 -15 -10 -19 -57 -24 -32 -3 -71 -12 -88 -21 -16 -8 -56 -18 -87 -22 -32
-4 -63 -13 -69 -20 -6 -8 -22 -14 -35 -14 -19 0 -24 5 -24 24 0 17 -7 26 -23
30 -13 3 -30 20 -40 41 -25 53 -22 71 14 79 19 3 33 13 36 25 6 24 32 36 47
21 11 -11 121 -13 148 -2 9 4 35 24 57 45 l41 38 0 82 c0 92 -11 144 -37 173
-10 10 -24 31 -30 47 -9 19 -20 27 -37 27 -19 0 -25 6 -28 28 -3 27 -3 27 -91
30 -71 2 -88 0 -93 -13 -3 -8 -12 -15 -19 -15 -7 0 -15 -9 -18 -20 -11 -43
-25 -16 -42 78 -9 53 -25 133 -36 177 -18 76 -45 209 -74 360 -38 195 -55 278
-74 360 -12 50 -28 118 -36 152 -8 34 -15 81 -15 104 0 24 -7 50 -15 59 -9 10
-20 51 -25 96 -5 43 -14 95 -20 114 -16 56 -13 70 15 70 21 0 25 -5 25 -30 l0
-31 153 3 152 3 3 33 c3 31 5 32 48 32 l44 0 0 50 0 50 35 0 35 0 0 194 0 195
-32 3 -32 3 0 74 -1 74 93 -2 c69 -2 92 1 94 11 0 7 2 19 2 27 1 10 14 15 41
15 l40 1 3 48 3 47 40 0 c24 0 39 -5 39 -12z m-2350 -383 l0 -65 30 0 c28 0
30 -3 30 -36 0 -27 5 -37 20 -41 11 -3 20 -13 20 -23 0 -40 11 -50 56 -50 l44
0 0 -70 0 -70 -50 0 -50 0 0 -34 c0 -30 -4 -34 -31 -40 -17 -3 -49 -6 -70 -6
-37 0 -39 -2 -39 -30 0 -30 -1 -30 -55 -30 l-55 0 0 150 c0 111 3 152 13 155
9 4 11 29 9 89 -4 78 -2 84 17 91 18 5 23 16 21 53 -1 6 38 17 78 21 8 1 12
-18 12 -64z m1810 -57 l0 -49 -47 3 -48 3 -3 42 c-3 45 0 47 65 49 33 0 33 0
33 -48z m3778 18 c-7 -8 -15 -12 -17 -11 -5 6 10 25 20 25 5 0 4 -6 -3 -14z
m-2443 -196 c3 -5 1 -10 -4 -10 -6 0 -11 5 -11 10 0 6 2 10 4 10 3 0 8 -4 11
-10z m-3745 -249 c0 -22 6 -30 25 -35 21 -5 25 -12 25 -45 0 -36 2 -39 31 -43
25 -4 33 -1 37 14 4 15 15 18 78 18 l74 0 0 -35 c0 -32 2 -35 30 -35 l30 0 0
-68 0 -68 -207 3 c-115 2 -214 6 -220 8 -9 3 -13 -8 -13 -35 l0 -40 -80 0
c-83 0 -84 1 -80 48 1 20 -3 22 -49 22 -50 0 -51 1 -51 29 0 26 -4 30 -32 33
-33 3 -33 4 -36 61 l-3 57 71 0 70 0 0 30 c0 29 1 30 50 30 l50 0 0 40 0 40
100 0 100 0 0 -29z m6601 -144 c6 -23 8 -65 4 -101 -8 -66 -14 -85 -30 -84 -5
0 -14 -9 -20 -21 -5 -11 -13 -21 -18 -21 -4 0 -20 -12 -35 -28 -15 -15 -34
-26 -44 -24 -9 2 -19 -2 -23 -7 -3 -6 -15 -11 -26 -11 -27 0 -27 50 0 57 30 8
44 55 39 136 -2 56 -8 78 -22 93 -19 19 -19 19 33 27 29 4 62 13 73 21 31 22
57 9 69 -37z m-5507 -84 c3 -21 6 -59 6 -85 0 -30 5 -50 14 -55 9 -5 20 -48
30 -115 8 -59 19 -115 25 -125 5 -10 17 -65 27 -123 9 -58 21 -109 26 -114 4
-6 8 -27 8 -49 0 -21 5 -48 12 -60 6 -12 14 -55 18 -95 4 -41 13 -78 20 -82 6
-4 16 -43 21 -86 5 -43 15 -95 23 -114 7 -19 23 -87 35 -150 12 -63 26 -117
31 -120 6 -3 13 -48 17 -99 5 -72 10 -94 23 -101 12 -7 19 -28 24 -76 4 -37
11 -75 16 -85 9 -15 40 -159 40 -182 0 -4 -3 -6 -7 -5 -16 3 -43 -15 -43 -29
0 -11 -10 -14 -37 -11 -35 3 -38 1 -41 -24 -3 -22 -9 -28 -27 -28 -33 0 -55
-10 -55 -25 0 -24 -38 -24 -67 1 -19 16 -29 20 -32 11 -6 -20 -23 -27 -66 -27
-37 0 -73 -7 -132 -25 -21 -7 -23 -4 -23 29 l0 36 -85 0 -85 0 0 45 0 45 -127
1 c-167 1 -178 5 -177 53 l1 37 -36 -5 c-45 -8 -58 1 -62 39 -4 28 -2 30 34
33 34 3 37 6 37 33 l0 29 140 0 140 0 0 -35 c0 -28 4 -35 19 -35 14 0 21 9 26
33 12 58 15 65 40 71 24 6 25 9 25 91 0 84 0 85 -25 85 -23 0 -25 -3 -25 -50
l0 -50 -115 0 -115 0 0 46 0 46 -57 -4 c-46 -2 -58 0 -59 12 0 8 -2 25 -2 38
-2 17 -8 22 -31 22 -27 0 -30 3 -33 38 l-3 37 -73 0 -72 0 0 38 c0 36 -1 37
-39 37 -40 0 -40 0 -43 43 -2 35 -7 43 -25 45 -19 3 -23 10 -23 38 0 32 2 34
35 34 34 0 35 1 35 43 0 53 8 64 45 69 28 3 30 6 33 50 3 42 6 47 30 50 24 3
27 8 30 46 3 39 5 42 33 42 31 0 35 12 30 87 -2 29 1 32 31 35 l33 3 3 62 c3
62 3 62 35 65 31 3 32 4 35 56 l3 52 35 0 34 0 0 55 c0 54 0 55 30 55 29 0 30
1 30 50 l0 50 39 0 40 0 3 47 3 46 53 15 c47 13 52 17 52 43 0 28 2 29 50 29
l50 0 0 35 0 35 49 0 c41 0 51 4 56 20 10 31 22 24 29 -17z m2553 -10 c-3 -10
-5 -2 -5 17 0 19 2 27 5 18 2 -10 2 -26 0 -35z m58 -213 c-3 -5 -12 -10 -18
-10 -7 0 -6 4 3 10 19 12 23 12 15 0z m4775 -266 c0 -41 3 -46 29 -55 61 -21
44 -56 -41 -83 -12 -3 -18 -16 -18 -36 0 -28 -2 -30 -39 -30 -22 0 -46 -3 -55
-6 -13 -5 -16 1 -16 32 0 22 7 48 15 58 8 11 15 36 15 57 0 28 5 38 20 42 15
4 20 14 20 36 0 29 3 31 35 31 35 0 35 0 35 -46z m-8700 -42 c0 -5 -11 -14
-25 -20 -19 -9 -25 -19 -25 -42 0 -28 -3 -30 -35 -30 -34 0 -35 -2 -35 -36 0
-27 -4 -35 -14 -31 -29 11 -83 -13 -107 -48 -22 -32 -29 -35 -71 -35 l-48 0 0
80 0 80 55 0 55 0 0 35 0 35 104 0 c59 0 108 4 111 10 7 12 35 13 35 2z m5980
-23 c0 -14 -7 -19 -30 -19 -17 0 -34 -7 -40 -17 -8 -12 -10 -13 -7 -3 2 8 13
19 25 25 12 5 20 15 18 21 -6 16 3 24 20 17 8 -3 14 -14 14 -24z m2495 -56
c-12 -140 -23 -163 -80 -163 -22 0 -22 3 -24 91 -1 56 3 101 11 120 11 26 18
29 57 29 l43 0 -7 -77z m-315 37 c11 -6 17 -16 14 -24 -3 -9 5 -15 25 -19 l31
-6 0 -119 0 -119 -32 6 c-23 5 -34 14 -38 31 -4 19 -13 26 -38 28 -32 3 -33 5
-27 40 3 20 13 42 21 49 13 9 16 26 12 77 -4 68 -1 73 32 56z m734 -112 c9
-17 16 -48 16 -70 l0 -38 -95 0 -95 0 0 43 c0 87 5 91 117 95 37 2 43 -1 57
-30z m-924 -143 c0 -9 -6 -12 -15 -9 -8 4 -15 10 -15 15 0 5 7 9 15 9 8 0 15
-7 15 -15z m-1936 -175 c46 -9 70 -19 73 -29 2 -9 24 -24 49 -35 29 -12 44
-24 44 -36 0 -20 19 -30 56 -30 19 0 24 -5 24 -24 0 -29 24 -56 51 -56 10 0
20 -7 20 -15 1 -8 3 -19 4 -25 1 -5 3 -14 4 -20 0 -5 8 -10 16 -10 8 0 15 -9
15 -20 0 -13 7 -20 20 -20 14 0 21 -9 26 -36 4 -24 13 -38 25 -41 10 -3 16 -9
13 -14 -3 -5 0 -9 5 -9 6 0 11 -13 11 -28 0 -38 -41 -43 -60 -7 -9 16 -25 27
-47 31 -19 4 -37 13 -40 20 -3 8 -13 14 -22 14 -9 0 -22 5 -29 12 -6 6 -42 20
-79 30 -93 24 -467 27 -477 3 -3 -8 -14 -15 -25 -15 -11 0 -23 -4 -26 -10 -3
-5 -26 -10 -51 -10 -39 0 -44 -2 -44 -23 0 -19 -6 -23 -37 -25 -45 -3 -53 -8
-53 -32 0 -14 -9 -20 -37 -22 -33 -3 -38 -7 -41 -30 -3 -25 -8 -28 -38 -28
-27 0 -37 -5 -43 -22 -5 -13 -7 -26 -4 -30 4 -8 -3 -10 -42 -12 -13 -1 -21 -9
-23 -24 -2 -12 -7 -20 -12 -17 -5 3 -12 -5 -16 -19 -4 -17 -14 -26 -32 -28
-21 -2 -28 -9 -30 -30 -3 -22 -8 -28 -29 -28 -16 0 -27 -7 -30 -20 -3 -10 -18
-25 -34 -32 -27 -12 -33 -23 -32 -55 1 -8 -12 -13 -33 -13 -31 0 -34 -3 -34
-30 0 -26 -3 -30 -29 -30 -23 0 -31 -6 -39 -29 -6 -16 -8 -32 -5 -35 4 -3 -8
-6 -25 -6 -25 0 -35 -6 -46 -29 -9 -16 -12 -32 -8 -36 4 -3 3 -6 -3 -5 -36 8
-55 -1 -55 -24 0 -18 -11 -30 -42 -48 -25 -14 -44 -32 -48 -46 -3 -13 -8 -23
-12 -23 -34 3 -48 -1 -48 -14 0 -8 -5 -15 -11 -15 -5 0 -8 -4 -5 -9 3 -5 -7
-11 -22 -13 -15 -3 -36 -9 -46 -13 -14 -6 -17 -5 -12 3 4 7 2 12 -3 12 -6 0
-11 7 -11 15 0 9 9 15 25 15 21 0 25 5 25 28 0 15 11 45 25 67 14 23 25 56 25
77 0 32 3 37 28 40 25 3 27 7 30 56 3 48 5 52 28 52 20 0 24 5 24 33 0 37 8
51 33 60 15 6 23 52 15 85 -1 4 11 9 28 12 27 5 29 8 32 58 3 48 5 52 28 52
19 0 28 8 37 33 6 17 10 35 9 39 -1 4 7 10 18 13 19 6 24 18 32 70 3 18 10 20
59 17 l56 -3 56 61 c31 33 62 60 69 60 7 0 18 10 23 23 6 12 21 23 35 25 14 2
33 12 43 23 30 32 115 50 272 59 83 4 173 6 200 3 106 -9 351 -46 366 -54 9
-5 42 -12 73 -15 56 -7 71 1 43 25 -34 28 -173 91 -224 102 -32 7 -65 18 -74
25 -10 10 -68 16 -187 20 -130 5 -172 10 -172 20 0 7 -9 19 -20 27 -21 14 -21
15 5 21 15 4 35 4 46 1 13 -4 19 -2 19 9 0 9 12 16 33 19 63 8 283 0 351 -13z
m-1346 -108 c-1 -5 -14 -5 -28 -1 l-25 6 25 10 c24 10 36 3 28 -15z m3882
-106 c0 -35 -10 -56 -26 -56 -10 0 -14 12 -14 40 0 33 3 40 20 40 14 0 20 -7
20 -24z m-5706 -72 c11 -4 16 -19 16 -45 0 -41 -18 -59 -59 -59 -17 0 -21 6
-21 34 0 19 -3 41 -6 49 -7 20 38 33 70 21z m1547 -44 c6 -16 17 -30 25 -30 7
0 22 -9 32 -21 18 -18 35 -21 180 -26 146 -6 159 -7 150 -23 -6 -9 -28 -24
-49 -33 -25 -11 -39 -24 -41 -39 -3 -23 -5 -23 -129 -22 -114 0 -132 3 -175
25 -27 13 -50 25 -52 25 -3 2 17 132 24 157 8 26 24 20 35 -13z m-4141 -44 c0
-42 1 -44 38 -50 20 -3 52 -6 70 -6 30 0 32 -2 32 -34 0 -34 1 -35 48 -38 l47
-3 3 -42 3 -43 55 0 55 0 -3 -52 -3 -53 -47 -3 c-46 -3 -48 -5 -48 -32 0 -30
0 -30 -55 -27 l-55 2 0 38 0 37 -75 0 -75 0 -1 38 c-1 20 -1 40 0 45 0 4 -44
7 -99 7 l-100 0 0 39 c0 37 -2 40 -32 43 -28 2 -34 8 -36 31 -3 25 -1 27 32
27 33 0 36 2 36 29 0 27 3 30 37 33 29 2 39 8 42 23 5 28 19 35 79 35 l52 0 0
-44z m2678 -73 c-3 -46 -4 -48 -36 -51 -41 -4 -62 12 -62 49 0 33 21 48 68 49
l33 0 -3 -47z m3201 -78 c2 -11 14 -36 27 -56 12 -20 27 -52 32 -70 6 -24 15
-35 30 -37 15 -2 22 -10 22 -25 0 -12 11 -44 25 -72 13 -27 25 -55 25 -61 0
-14 -32 -24 -80 -24 -19 0 -52 -3 -74 -7 -38 -6 -38 -6 -32 -43 6 -37 5 -38
-28 -44 -19 -4 -37 -13 -40 -21 -3 -8 -24 -19 -47 -25 -26 -7 -43 -18 -46 -31
-9 -32 -28 -22 -56 30 -15 27 -34 54 -42 61 -8 7 -15 17 -15 22 0 5 -9 21 -20
35 -11 14 -20 32 -20 40 0 15 142 85 198 97 17 4 32 10 32 14 0 3 -23 53 -51
110 -28 57 -49 105 -47 108 5 5 178 22 193 19 6 -1 12 -10 14 -20z m-2119
-142 c0 -32 -5 -92 -11 -133 -6 -41 -14 -178 -17 -305 l-7 -230 -24 -3 c-13
-2 -28 2 -32 10 -23 34 16 612 45 681 25 58 46 49 46 -20z m-1910 27 c0 -16
-7 -20 -31 -20 -36 0 -72 17 -64 31 4 5 26 9 51 9 37 0 44 -3 44 -20z m93 -41
c29 -8 37 -15 36 -32 0 -21 -1 -21 -9 -2 l-9 20 -1 -20 c-1 -19 -2 -19 -12 2
-7 15 -25 26 -52 32 -28 6 -33 9 -16 10 14 0 42 -4 63 -10z m-63 -118 c0 -34
-14 -41 -81 -41 -47 0 -49 1 -49 28 0 16 3 32 7 35 3 4 33 7 65 7 57 0 58 0
58 -29z m499 -37 c25 -5 33 -13 38 -35 3 -16 10 -29 16 -29 17 0 60 -53 73
-90 8 -22 19 -36 33 -38 17 -3 20 -12 23 -55 2 -41 7 -53 22 -55 10 -2 22 2
27 10 14 21 10 90 -6 108 -8 9 -16 27 -17 40 -3 22 2 25 47 32 28 5 62 15 78
24 15 8 27 12 27 8 0 -3 6 -1 14 5 8 6 38 14 67 18 30 3 59 11 64 18 6 6 40
15 78 18 l67 6 0 -29 c0 -16 11 -41 25 -58 44 -53 61 -137 50 -245 l-7 -63
-54 -33 c-47 -28 -71 -34 -172 -46 -64 -8 -154 -15 -198 -15 l-82 0 -6 64 -7
63 -89 -5 c-81 -4 -90 -3 -96 14 -3 11 -9 26 -12 34 -6 16 -7 29 -10 93 -2 36
-4 38 -29 35 -23 -2 -29 -8 -31 -35 -3 -32 -32 -56 -32 -27 0 9 -17 31 -37 50
-27 25 -50 36 -85 40 -40 6 -48 10 -42 23 3 9 9 26 11 39 4 15 13 22 28 22 16
0 25 7 29 24 3 13 15 26 26 29 11 3 20 12 20 20 0 9 8 18 18 20 27 7 96 8 131
1z m-455 -20 c11 -29 6 -84 -8 -90 -7 -3 -40 -2 -72 3 l-59 8 -3 38 c-3 36 -2
37 30 37 18 0 40 5 48 10 23 15 57 12 64 -6z m-2070 -98 c6 -34 7 -34 41 -25
20 6 61 9 93 7 l57 -3 3 -42 3 -43 69 0 c68 0 68 0 75 -30 l7 -30 114 0 114 0
0 35 c0 35 0 35 45 35 l45 0 0 -55 0 -55 149 0 150 0 -2 -27 c-2 -27 0 -28 46
-26 l47 1 0 -49 c0 -27 4 -49 10 -49 5 0 12 -17 16 -37 4 -22 19 -49 36 -64
15 -15 28 -36 28 -48 0 -19 -5 -21 -74 -21 l-75 0 -3 43 -3 42 -107 3 c-76 2
-109 6 -110 15 -1 7 -2 26 -2 42 l-1 30 -394 3 c-301 2 -397 5 -403 15 -5 8
-11 8 -15 2 -5 -5 -59 -11 -120 -13 l-113 -3 0 140 0 141 94 0 c103 0 106 2
106 73 0 24 4 27 34 27 31 0 34 -3 40 -34z m5110 -32 c3 -9 6 -122 6 -251 l0
-236 43 6 c23 3 51 8 62 12 31 9 68 -65 63 -128 -3 -49 -3 -49 -53 -67 -27 -9
-49 -22 -47 -29 1 -6 -10 -11 -25 -11 -16 0 -65 -3 -110 -7 l-83 -6 0 30 c0
21 -6 32 -17 35 -24 6 -278 -18 -328 -31 -54 -14 -475 -27 -475 -14 0 5 7 18
16 29 8 10 13 14 10 7 -4 -6 -3 -14 2 -17 11 -6 39 26 44 50 2 12 17 22 40 27
21 5 40 16 43 26 2 9 21 25 41 36 20 11 43 30 51 42 9 13 21 23 28 23 6 0 20
9 30 20 10 11 24 20 31 20 7 0 16 9 19 20 4 13 15 20 31 20 17 0 27 8 34 25 5
14 16 25 23 25 8 0 28 14 45 30 18 17 39 30 47 30 8 0 15 9 15 20 0 15 8 22
29 26 17 4 31 14 34 25 3 12 14 19 30 19 16 0 26 7 30 20 3 13 17 22 36 26 17
4 31 13 31 20 0 8 12 20 28 27 15 6 30 15 33 20 7 10 142 97 150 97 4 0 10 -7
13 -16z m-2775 -65 c36 -13 61 -53 61 -98 0 -39 -10 -62 -22 -55 -6 4 -8 -1
-4 -14 4 -13 1 -22 -9 -26 -8 -3 -15 -1 -15 4 0 5 -8 6 -17 3 -11 -4 -12 -8
-5 -11 17 -5 15 -39 -4 -46 -45 -17 -94 -2 -94 29 0 13 -4 27 -10 30 -13 8
-12 133 1 160 9 19 9 19 5 -1 -2 -16 1 -21 13 -19 9 1 16 10 16 19 0 17 21 36
41 36 6 0 25 -5 43 -11z m-1055 -75 c9 -4 16 -18 16 -34 0 -29 -15 -40 -56
-40 -18 0 -25 7 -32 33 -5 17 -7 35 -5 40 5 9 55 9 77 1z m1200 -94 c-10 -4
-21 -6 -24 -3 -8 7 24 22 34 16 5 -4 1 -10 -10 -13z m-1114 -59 c0 -43 -3 -50
-23 -55 -13 -3 -36 -2 -52 2 -27 8 -30 13 -33 55 l-3 47 55 0 56 0 0 -49z
m5113 42 c-7 -2 -19 -2 -25 0 -7 3 -2 5 12 5 14 0 19 -2 13 -5z m-4360 -52 c7
-7 2 -9 -16 -5 -24 4 -27 1 -27 -25 0 -16 4 -41 9 -54 9 -24 8 -25 -52 -30
-34 -4 -108 -9 -164 -13 l-102 -7 -7 27 c-6 27 0 93 10 104 20 20 329 23 349
3z m4382 -15 c31 -13 35 -19 35 -50 0 -29 4 -37 24 -42 23 -5 26 -13 32 -75 6
-64 8 -69 30 -69 27 0 33 -15 36 -105 3 -57 5 -60 29 -63 24 -3 27 -8 33 -60
10 -84 15 -98 41 -112 14 -7 27 -26 31 -44 3 -17 15 -43 25 -58 11 -14 19 -38
19 -53 0 -18 6 -29 19 -32 21 -5 31 -31 31 -80 0 -28 3 -33 25 -33 l25 0 0
-164 c0 -155 -1 -164 -20 -169 -27 -7 -29 -1 -36 85 -7 75 -24 116 -44 103 -6
-3 -9 -18 -7 -33 2 -17 -3 -32 -15 -42 -11 -9 -28 -54 -44 -120 -14 -57 -33
-119 -43 -138 l-17 -33 -19 35 c-16 30 -23 34 -45 29 -14 -3 -28 -11 -32 -17
-10 -15 -9 4 2 29 5 11 9 14 9 8 1 -7 6 -13 11 -13 7 0 7 7 -1 22 -11 20 -6
127 6 161 3 7 -1 21 -9 32 -12 16 -16 17 -30 6 -9 -8 -16 -28 -16 -48 0 -21
-6 -36 -15 -39 -9 -4 -15 -19 -15 -38 0 -32 -15 -104 -23 -112 -2 -2 -18 1
-36 7 -26 9 -35 8 -50 -5 -23 -21 -65 -22 -57 -1 3 8 0 15 -7 15 -13 0 -37 86
-37 133 0 15 6 42 13 60 14 34 5 97 -14 97 -5 0 -14 11 -20 24 -6 13 -20 27
-30 29 -13 4 -19 14 -19 36 0 17 -5 31 -10 31 -22 0 -29 -54 -25 -188 4 -139
4 -140 -23 -176 -23 -31 -32 -35 -67 -34 -25 0 -31 2 -16 5 l23 5 -6 186 c-7
200 -13 252 -27 252 -5 0 -9 16 -9 35 0 25 7 43 25 59 17 16 25 34 25 56 0 23
5 33 19 37 20 5 41 42 41 74 0 14 9 21 30 26 27 5 30 9 30 45 0 28 -7 46 -25
63 -13 14 -29 25 -34 25 -5 0 -15 16 -22 35 -7 19 -21 37 -31 41 -25 8 -31 40
-26 154 l4 99 40 48 c23 26 52 54 65 60 34 18 201 17 244 -1z m-4905 -81 c0
-63 3 -76 19 -84 15 -8 21 -27 26 -80 4 -45 12 -71 21 -75 8 -3 14 -19 14 -40
0 -26 5 -36 20 -41 15 -5 20 -16 21 -43 2 -60 13 -87 37 -90 16 -3 22 -10 22
-30 0 -15 3 -44 6 -64 6 -32 11 -38 30 -38 17 0 24 -6 24 -19 0 -33 51 -61
113 -61 53 0 55 -1 61 -31 3 -17 6 -64 6 -105 0 -62 3 -73 19 -79 15 -4 22
-23 32 -87 8 -47 20 -88 30 -97 10 -10 19 -40 22 -78 l7 -63 -29 0 c-34 0 -64
30 -59 62 3 21 -1 23 -44 26 -46 3 -48 5 -48 33 0 28 -2 29 -45 29 l-46 0 7
35 6 35 -61 0 c-64 0 -67 2 -62 52 2 15 -10 18 -86 20 l-88 3 0 30 c0 29 -2
30 -47 33 -46 3 -48 5 -48 33 0 28 -1 29 -54 29 -51 0 -54 1 -59 30 -6 28 -9
30 -56 30 -58 0 -81 7 -81 26 0 9 -18 14 -57 16 -55 3 -58 4 -63 33 -4 17 -11
29 -18 28 -9 -2 -12 52 -12 217 l0 220 35 0 c33 0 35 2 35 35 0 34 1 35 41 35
32 0 42 -4 46 -20 3 -10 14 -22 24 -25 26 -9 148 5 155 17 3 5 17 14 31 19 16
6 23 15 19 24 -3 10 3 17 19 21 21 5 24 12 27 62 3 54 5 58 38 74 19 9 38 17
43 18 4 0 7 -34 7 -75z m2760 9 c0 -8 -4 -12 -10 -9 -5 3 -10 10 -10 16 0 5 5
9 10 9 6 0 10 -7 10 -16z m-3940 -123 c0 -111 1 -120 20 -126 16 -5 20 -15 20
-46 0 -36 2 -39 26 -39 l27 0 -7 -83 c-4 -46 -4 -120 0 -165 6 -70 10 -82 25
-82 27 0 14 -23 -24 -42 -34 -18 -130 -26 -160 -13 -10 4 -23 18 -28 31 -4 13
-16 24 -26 24 -16 0 -18 10 -15 100 3 79 1 100 -10 101 -39 2 -80 7 -84 12 -3
3 -7 104 -9 226 l-4 221 124 0 125 0 0 -119z m3050 49 c0 -19 40 -50 65 -50
l25 0 0 -115 c0 -108 1 -115 20 -115 15 0 20 -7 20 -25 0 -18 7 -28 26 -36
l27 -10 -22 -22 c-17 -19 -21 -36 -21 -93 0 -38 -4 -75 -9 -82 -5 -9 -26 -12
-67 -10 l-59 3 -3 38 c-2 22 -8 37 -15 36 -39 -5 -47 2 -47 36 l0 35 -80 0
-80 0 0 34 c0 34 -1 35 -42 38 -39 3 -43 6 -46 31 -3 23 -8 27 -33 27 -26 0
-29 -3 -29 -30 0 -20 -5 -30 -15 -30 -8 0 -19 -9 -26 -21 -8 -17 -18 -20 -45
-17 -27 3 -34 0 -35 -14 -1 -10 -2 -23 -3 -30 -1 -8 15 -11 52 -9 l52 2 0 -30
c0 -29 2 -31 39 -31 l38 0 6 -57 c3 -32 3 -61 -2 -66 -4 -4 -52 -6 -107 -5
l-99 3 -3 47 -3 47 -97 3 -97 3 -5 40 c-5 40 -5 40 -51 43 l-47 3 -17 72 c-10
40 -21 74 -25 77 -5 3 -11 22 -15 43 -7 36 -7 37 25 37 17 0 38 7 47 16 11 11
32 15 77 13 34 -1 70 2 81 8 11 6 53 13 94 16 41 3 79 11 85 17 5 5 32 10 58
10 26 0 48 4 48 9 0 6 32 13 71 17 56 5 73 11 76 24 5 18 31 30 69 30 11 0 26
6 32 12 7 7 32 18 55 24 57 15 57 15 57 4z m-1254 -40 c2 -19 -2 -46 -9 -60
-6 -14 -12 -26 -12 -27 -1 -2 -57 -9 -126 -17 -68 -8 -149 -18 -180 -22 l-56
-6 -6 68 c-4 37 -4 70 -1 73 7 7 278 29 338 27 48 -1 49 -1 52 -36z m62 -127
c-2 -10 -12 -18 -23 -18 -15 0 -21 -8 -23 -32 -3 -28 0 -33 20 -34 l23 -2 -22
-4 c-13 -2 -23 -11 -23 -18 0 -20 -39 -29 -208 -48 l-111 -13 -16 38 c-29 74
-20 82 105 93 110 8 218 29 233 44 18 18 49 14 45 -6z m3694 -80 l67 -5 6 -39
c4 -22 15 -43 25 -49 10 -5 23 -23 28 -40 8 -20 18 -30 31 -30 18 0 21 -6 21
-40 0 -30 -5 -42 -17 -47 -24 -9 -33 -23 -33 -54 0 -18 -6 -28 -20 -32 -14 -3
-20 -14 -20 -31 0 -18 -8 -30 -23 -37 l-24 -11 1 -222 c0 -226 -5 -265 -31
-231 -7 11 -13 29 -13 41 0 16 -7 24 -22 26 -16 2 -24 11 -26 28 -5 40 -23 69
-46 72 -17 2 -21 10 -21 37 0 22 -6 36 -15 39 -22 7 -30 25 -19 38 16 20 2
314 -16 334 -9 10 -16 39 -16 73 -2 52 -7 62 -31 58 -22 -3 -3 13 36 30 35 15
47 27 57 57 7 20 12 41 11 46 -2 5 7 5 20 1 13 -5 53 -10 90 -12z m1963 -156
l0 -157 -62 0 c-80 0 -94 -6 -87 -36 6 -24 5 -24 -60 -24 l-66 0 0 -260 0
-260 -44 0 c-43 0 -45 1 -48 33 -3 28 -6 32 -28 29 -35 -5 -35 -7 -32 -73 l2
-59 -34 0 c-35 0 -46 13 -46 51 0 17 -6 20 -37 17 -33 -3 -38 -7 -41 -30 l-3
-28 -95 0 c-72 0 -95 3 -92 13 3 6 16 13 30 15 23 3 27 9 33 58 l7 56 66 -4
65 -3 -2 73 -2 72 34 0 c33 0 35 2 41 41 4 22 4 44 1 50 -4 5 -37 9 -76 9 -62
0 -69 -2 -69 -20 0 -18 -8 -20 -107 -22 l-106 -3 -14 -40 c-21 -62 -37 -63
-45 -2 -3 29 -6 80 -7 114 -1 51 -5 65 -21 75 -31 20 -24 35 20 42 21 3 43 12
47 19 4 7 28 19 53 27 25 7 50 16 55 19 6 3 21 6 35 6 18 0 26 6 28 23 3 19 9
22 53 22 42 0 49 3 49 20 0 16 7 20 35 20 23 0 35 5 35 14 0 14 29 26 68 26
15 0 22 6 22 20 0 17 7 20 45 20 41 0 45 2 45 24 0 23 4 25 53 28 45 3 52 6
55 26 2 16 10 22 27 22 37 0 55 10 55 32 0 16 6 19 33 18 51 -3 57 -1 57 19 0
18 34 32 65 26 6 -1 10 -62 10 -158z m-5638 61 c-3 -7 -5 -2 -5 12 0 14 2 19
5 13 2 -7 2 -19 0 -25z m-37 -18 c-6 -11 -8 -20 -4 -20 4 0 -6 -11 -22 -25
-22 -20 -26 -27 -16 -34 23 -14 -8 -20 -138 -27 l-120 -7 0 41 c0 47 -8 43
125 63 44 6 98 15 120 19 66 12 67 12 55 -10z m2108 -153 c2 -43 -1 -77 -5
-74 -4 3 -8 -59 -7 -136 1 -78 -3 -133 -7 -122 -7 18 -8 17 -8 -7 -2 -55 -1
-55 -154 -57 -78 -1 -147 2 -153 6 -6 5 -17 19 -24 32 -6 13 -15 20 -19 15 -3
-5 -12 -10 -19 -12 -21 -4 -13 384 8 416 15 22 17 22 200 20 l185 -3 3 -78z
m-1974 22 c15 -77 6 -89 -65 -89 -39 0 -39 0 -39 39 0 31 4 41 20 46 11 3 20
10 20 15 0 8 20 16 46 19 6 0 14 -13 18 -30z m-1454 -87 c0 -26 2 -27 39 -24
38 4 40 3 43 -30 3 -30 6 -33 31 -30 l27 3 0 -75 0 -76 -105 0 c-84 0 -105 3
-105 14 0 8 -10 16 -22 18 -18 2 -23 10 -23 33 l0 30 -63 -3 c-92 -5 -112 2
-112 38 0 27 3 30 30 30 29 0 30 2 30 46 l0 47 35 -6 c19 -3 37 -1 40 4 4 5
40 9 81 9 l74 0 0 -28z m1490 -48 c0 -29 -17 -50 -55 -64 -78 -30 -91 14 -17
60 58 36 72 37 72 4z m264 -20 c3 -9 6 -25 6 -36 0 -11 11 -55 25 -97 13 -42
33 -110 45 -151 11 -41 29 -102 39 -135 11 -33 22 -76 26 -95 4 -19 11 -41 16
-50 9 -17 76 -252 91 -320 10 -45 43 -163 79 -275 10 -33 23 -82 29 -110 6
-27 14 -59 19 -70 6 -11 26 -83 45 -160 20 -77 54 -207 76 -290 22 -82 59
-235 81 -340 35 -162 41 -207 41 -305 -1 -226 0 -218 -25 -222 -18 -3 -23 -12
-30 -58 -4 -30 -8 -65 -8 -77 -2 -34 -35 -30 -43 5 -4 15 -35 123 -69 239 -50
172 -65 213 -79 213 -13 0 -18 8 -18 29 0 42 -9 61 -30 61 -13 0 -20 11 -25
38 -4 20 -15 55 -25 77 -10 22 -23 64 -29 94 -6 30 -16 59 -20 65 -11 13 -66
178 -110 326 -40 135 -65 216 -95 310 -30 94 -65 210 -82 275 -30 118 -66 245
-88 315 -44 137 -44 138 16 142 l34 3 3 70 c1 38 7 78 13 88 5 11 10 88 11
172 1 139 3 154 19 158 13 4 18 15 18 40 0 65 29 111 44 71z m720 -76 c6 -37
7 -38 50 -38 40 0 44 -2 50 -30 5 -25 10 -30 36 -30 36 0 38 -13 7 -43 -13
-12 -27 -35 -31 -52 -11 -42 -24 -55 -57 -55 -21 0 -28 5 -31 23 -3 19 -10 22
-60 25 l-58 3 0 34 0 35 -80 0 -80 0 0 60 0 60 36 0 c27 0 37 5 41 20 4 16 16
20 67 22 108 6 103 8 110 -34z m-928 -100 c7 -75 6 -77 -17 -82 -61 -14 -64
-12 -67 22 -2 17 -7 32 -13 32 -5 0 -9 17 -9 38 0 34 4 39 43 57 23 11 45 18
49 15 5 -3 11 -40 14 -82z m-2291 56 c27 -7 45 -49 45 -106 l0 -48 -95 0 -94
0 6 53 c3 28 10 54 15 56 5 2 13 14 18 27 8 20 17 24 47 24 21 0 47 -3 58 -6z
m2685 -14 c0 -6 11 -16 25 -22 22 -10 25 -18 25 -60 l0 -48 -49 0 -49 0 -11
48 c-6 26 -13 57 -17 70 -6 20 -3 22 35 22 22 0 41 -5 41 -10z m-1480 -75 l5
-50 70 -5 70 -5 3 -62 c3 -57 5 -63 25 -63 62 -1 67 -7 67 -86 l0 -73 -42 -6
c-24 -4 -70 -5 -103 -3 l-60 3 -3 65 -3 65 -79 -1 -80 -1 0 44 0 43 -89 0 -90
0 -3 28 c-2 15 -1 44 0 64 3 29 9 38 25 40 14 2 22 11 23 23 1 11 2 24 3 28 0
4 58 6 129 5 l127 -3 5 -50z m1728 -67 c2 -20 9 -28 23 -28 14 0 19 -7 19 -25
0 -25 4 -27 50 -29 24 -1 25 -4 28 -68 3 -64 4 -68 27 -68 51 0 55 -7 55 -92
l0 -79 -67 1 c-127 4 -123 1 -123 81 0 67 -1 69 -25 69 -14 0 -25 6 -26 13 -1
6 -2 23 -2 37 -2 25 -3 25 -94 25 -50 0 -94 3 -98 7 -9 8 -24 76 -25 106 0 20
5 22 45 22 43 0 45 1 45 30 l0 31 83 -3 c81 -3 82 -3 85 -30z m-2708 -17 c0
-10 7 -24 15 -31 35 -29 4 -134 -43 -147 -13 -3 -47 -2 -75 3 l-52 9 -3 75
c-4 95 10 110 99 110 51 0 59 -3 59 -19z m2103 -48 c8 -14 -12 -53 -28 -53 -8
0 -15 -5 -15 -12 0 -6 -9 -3 -20 7 -36 33 -21 51 52 64 4 0 9 -2 11 -6z m1365
-23 c28 -7 54 -15 57 -20 4 -7 -12 -170 -17 -175 -2 -2 -34 7 -72 19 l-68 21
6 59 c3 32 6 72 6 88 0 23 4 28 18 25 9 -3 41 -11 70 -17z m-2948 -45 c0 -21
5 -25 30 -25 l30 0 0 -64 c0 -36 -5 -68 -10 -71 -17 -11 -267 -19 -271 -9 -3
5 -3 39 -1 76 4 67 4 67 35 70 24 2 33 8 35 26 3 21 8 22 78 22 72 0 74 -1 74
-25z m1577 -29 c1 -1 -1 -7 -5 -13 -5 -8 -15 -5 -31 9 l-25 19 30 -7 c16 -4
30 -7 31 -8z m3202 -92 c18 -48 30 -88 29 -89 -2 -1 -41 -10 -88 -19 -47 -9
-89 -21 -94 -26 -4 -4 -7 -26 -4 -49 4 -48 -2 -51 -114 -51 l-78 0 0 28 c0 15
-6 38 -13 52 -23 45 -49 121 -43 127 3 3 45 16 93 28 56 15 89 28 91 38 2 12
108 39 179 46 6 1 25 -38 42 -85z m-691 30 c1 -10 10 -54 19 -97 9 -42 14 -79
12 -82 -3 -2 -47 -10 -98 -18 -82 -12 -93 -12 -100 2 -12 22 -31 116 -31 150
0 26 3 28 74 40 40 7 80 17 87 22 20 12 34 6 37 -17z m1223 -100 c-13 -27 -21
-68 -21 -98 0 -44 4 -56 26 -75 22 -19 39 -23 104 -24 62 -1 82 2 97 16 16 13
38 17 111 17 91 0 92 0 92 25 0 22 4 25 35 25 19 0 35 5 35 11 0 5 5 7 12 3 8
-5 9 -2 5 9 -4 11 1 22 13 29 11 7 20 18 20 24 0 6 22 14 50 16 39 4 56 12 80
36 45 48 77 23 66 -53 -3 -16 -5 -35 -5 -42 -1 -6 -9 -14 -18 -16 -27 -7 14
-8 640 -10 l578 -2 -3 -80 -3 -80 -82 -3 -83 -3 0 -54 c0 -29 -3 -60 -6 -68
-5 -13 30 -15 263 -13 147 1 276 0 286 -2 9 -2 17 -12 17 -22 0 -15 -15 -20
-87 -30 -49 -6 -95 -12 -103 -13 -8 -2 -15 -12 -14 -25 0 -19 -5 -22 -38 -22
-37 0 -38 -1 -38 -35 0 -33 -2 -35 -35 -35 -33 0 -35 -2 -35 -34 0 -30 -4 -35
-30 -41 -25 -5 -30 -11 -30 -36 0 -26 -4 -29 -30 -29 -29 0 -30 -1 -30 -49 l0
-50 -37 -3 -38 -3 -5 -105 -5 -105 -83 -3 c-55 -2 -92 -8 -108 -18 -16 -11
-41 -15 -77 -12 -36 2 -53 -1 -50 -8 2 -6 -1 -23 -6 -37 -10 -26 -12 -27 -99
-27 -49 0 -137 -3 -195 -7 -95 -5 -107 -8 -107 -25 0 -16 -9 -18 -80 -18 l-80
0 0 -40 0 -40 310 0 310 0 -10 -26 c-6 -14 -10 -34 -10 -45 0 -18 9 -19 201
-19 179 0 200 -2 195 -16 -3 -9 -6 -33 -6 -54 l0 -38 -55 -4 c-61 -5 -60 -5
-69 -34 -6 -20 -2 -21 128 -27 74 -4 155 -4 180 -1 l46 7 0 -36 c0 -33 2 -36
33 -39 29 -3 32 -6 32 -38 1 -32 4 -35 33 -38 20 -2 32 -9 32 -18 0 -8 7 -17
15 -20 23 -9 18 -18 -15 -31 -19 -7 -30 -18 -30 -31 0 -12 -9 -22 -22 -25 -32
-9 -925 -7 -973 1 -36 7 -40 10 -43 41 l-3 33 -177 -4 c-184 -5 -243 -14 -187
-30 17 -5 92 -11 168 -15 l137 -6 0 -34 c0 -30 3 -33 30 -33 17 0 30 -4 30
-10 0 -6 52 -10 135 -10 l135 0 0 -30 c0 -19 7 -33 20 -40 13 -7 20 -21 20
-40 l0 -30 -710 0 -710 0 0 29 c0 42 -10 61 -31 61 -16 0 -19 8 -19 46 0 25
-7 67 -16 94 -17 53 -15 96 4 92 9 -1 12 36 12 152 0 85 -3 161 -6 170 -4 10
-18 16 -40 16 -33 0 -33 0 -36 53 -3 45 -6 52 -25 55 -18 3 -23 10 -23 33 0
25 4 29 29 29 25 0 30 4 33 28 3 23 8 28 43 32 30 4 41 10 44 25 4 26 19 35
59 35 l32 0 0 89 c0 85 -1 90 -22 93 -19 2 -24 11 -28 43 -4 35 -9 40 -32 43
-16 2 -28 9 -28 15 0 7 -5 29 -11 50 -7 26 -15 37 -29 37 -15 0 -20 7 -20 30
0 16 -7 55 -15 87 -21 79 -19 93 8 94 24 1 18 4 -24 13 -24 5 -27 12 -31 51
-3 42 -2 45 22 46 19 1 16 3 -10 8 -30 5 -35 10 -38 36 -5 56 -12 74 -33 80
-11 4 -18 9 -15 12 3 3 -1 21 -9 40 -19 45 -19 42 10 53 24 9 25 14 25 85 0
64 -3 77 -20 87 -23 15 -26 28 -5 28 7 0 18 -8 23 -17 7 -12 27 -18 74 -21 59
-4 65 -2 93 24 38 36 42 28 16 -32z m-5033 12 c3 -36 5 -38 33 -34 l29 5 0
-74 0 -73 -105 0 -105 0 0 30 c0 28 -3 30 -35 30 l-35 0 0 56 0 55 33 -3 c29
-3 32 0 35 25 l3 28 72 -3 72 -3 3 -39z m944 10 c4 -6 8 -26 8 -43 0 -23 5
-33 15 -33 10 0 15 -10 15 -28 0 -16 7 -48 15 -73 8 -24 21 -72 29 -106 l14
-63 -49 0 -49 0 0 60 0 61 -59 -7 -60 -6 -3 63 -3 64 -47 3 -48 3 0 59 c0 37
4 60 13 63 22 9 202 -6 209 -17z m4341 16 c4 -1 7 -16 7 -32 l0 -30 -35 22
c-19 13 -35 28 -35 34 0 9 32 12 63 6z m-1803 -26 c0 -2 9 -49 21 -106 11 -56
17 -106 12 -110 -8 -9 -156 -59 -161 -56 -1 2 -9 52 -17 112 -9 60 -18 117
-21 127 -4 14 1 17 28 18 18 0 42 4 53 9 20 8 85 13 85 6z m3718 -63 l3 -53
-30 0 c-29 0 -31 -3 -31 -35 0 -28 -5 -38 -22 -44 -13 -5 -24 -5 -26 0 -2 5
-10 9 -18 9 -33 0 -95 33 -92 49 2 9 10 17 18 17 8 1 21 2 28 3 8 1 12 18 12
49 0 27 3 52 7 56 4 4 39 5 78 4 l70 -3 3 -52z m-1954 22 c10 28 28 3 20 -29
-8 -35 -53 -38 -49 -3 5 51 6 53 14 33 7 -19 8 -19 15 -1z m-2156 -50 c9 -3
12 -38 12 -126 l0 -122 -67 6 c-38 4 -110 7 -160 7 l-93 0 0 124 0 123 148 -4
c81 -3 153 -6 160 -8z m4392 -40 l0 -45 -60 0 c-56 0 -60 2 -60 23 0 58 9 67
66 67 l54 0 0 -45z m-7020 -5 l0 -40 60 0 60 0 0 -35 c0 -33 2 -35 35 -35 35
0 35 -1 35 -42 0 -78 -7 -88 -56 -88 -44 0 -44 0 -44 -35 l0 -35 -70 0 -70 0
0 50 0 50 -95 0 -95 0 -1 28 c-1 15 -1 33 0 40 1 8 -13 12 -44 12 l-45 0 0 71
0 71 35 -4 c29 -3 35 -1 35 14 0 16 12 18 130 18 l130 0 0 -40z m4750 0 c0 -5
-15 -9 -32 -9 l-33 1 30 8 c17 4 31 8 33 9 1 0 2 -3 2 -9z m-5922 -97 c-3 -27
-2 -28 45 -27 45 0 47 -1 47 -28 0 -24 4 -28 30 -28 25 0 30 -4 30 -24 0 -13
7 -26 15 -30 8 -3 15 -15 15 -26 0 -16 7 -20 30 -20 28 0 30 -3 30 -35 0 -30
3 -35 24 -35 21 0 25 -5 28 -37 2 -31 7 -39 26 -41 18 -3 22 -10 22 -43 0 -37
1 -39 33 -39 l32 0 3 -71 c3 -71 -4 -129 -16 -128 -27 4 -42 -4 -48 -26 -6
-24 -8 -25 -101 -25 -86 0 -95 2 -100 20 -3 11 -14 20 -24 20 -12 0 -19 9 -21
28 -2 19 -9 28 -25 30 -18 3 -23 10 -23 32 0 44 -10 60 -36 60 -23 0 -24 3
-24 60 0 57 -1 60 -25 60 -25 0 -25 0 -25 -95 l0 -95 -30 0 -30 0 0 204 c0
196 -1 205 -20 211 -11 3 -20 12 -20 19 0 14 -53 56 -70 56 -6 0 -8 5 -5 10 3
6 -2 10 -12 11 -10 0 -13 3 -5 6 6 2 12 16 12 29 l0 24 121 0 120 0 -3 -27z
m3234 -15 l59 -12 -5 -36 c-3 -19 -10 -87 -16 -150 -18 -182 -21 -200 -31
-200 -21 0 -104 23 -113 31 -6 5 -18 9 -28 9 -10 0 -18 3 -18 8 0 30 51 339
59 360 2 5 38 1 93 -10z m1334 2 c5 -5 36 -12 69 -15 76 -7 95 -13 95 -30 0
-16 32 -25 98 -25 l52 0 0 -32 c0 -62 4 -63 140 -49 67 7 122 12 124 10 1 -2
8 -24 15 -49 7 -25 22 -65 33 -90 41 -89 108 -298 108 -334 0 -9 -36 -17 -121
-27 l-120 -14 -14 30 c-14 32 -52 156 -57 190 -3 16 -10 19 -33 17 -30 -3
-186 -34 -237 -47 -20 -5 -29 -3 -32 6 -2 8 -8 32 -14 54 -27 100 -55 191 -61
197 -3 3 -64 -7 -136 -23 -163 -36 -185 -37 -185 -6 0 12 -9 37 -20 55 -21 33
-21 48 -2 95 7 16 19 27 31 27 11 0 21 8 23 17 2 14 25 21 113 34 61 9 112 17
116 18 3 0 9 -3 15 -9z m-1846 -38 l0 -38 39 4 40 4 3 -48 c3 -44 5 -49 28
-49 22 0 25 -5 28 -42 l3 -43 -75 0 -76 0 0 40 0 40 -89 0 -88 0 -6 43 c-3 24
-9 51 -13 60 -4 12 1 19 18 26 13 5 30 16 37 25 10 12 31 16 82 16 l69 0 0
-38z m2710 -90 c0 -10 11 -52 25 -92 14 -40 23 -75 21 -77 -1 -2 -39 -10 -82
-18 -91 -18 -97 -14 -109 56 -4 21 -11 41 -16 45 -5 3 -9 22 -9 43 l0 37 63
11 c98 16 107 15 107 -5z m-3878 -139 c2 -20 9 -29 26 -31 19 -3 22 -9 22 -48
l0 -44 -110 0 -110 0 0 40 c0 27 5 43 15 46 9 4 15 19 15 35 l0 29 69 0 c69 0
70 0 73 -27z m2762 -35 c2 -7 13 -45 25 -84 30 -101 30 -104 -25 -104 -37 0
-47 4 -51 20 -3 11 -11 20 -19 20 -23 0 -32 30 -19 68 7 20 18 38 23 40 6 2 9
9 6 16 -3 7 5 18 18 24 31 14 38 14 42 0z m4256 -138 l0 -60 -70 0 -70 0 0 53
c0 30 3 57 7 60 3 4 35 7 70 7 l63 0 0 -60z m-5690 -19 c0 -78 -6 -101 -26
-101 -8 0 -19 -11 -25 -24 -6 -13 -20 -27 -32 -30 -14 -3 -18 -11 -14 -25 4
-17 0 -21 -18 -21 -21 0 -24 -6 -30 -54 -7 -51 -9 -54 -26 -43 -11 7 -19 23
-19 38 0 14 -9 52 -20 84 -11 32 -20 66 -20 75 0 9 -10 47 -21 84 -18 57 -19
70 -8 77 8 5 69 9 137 9 l122 0 0 -69z m-2228 -18 c3 -48 3 -48 41 -51 l37 -3
-4 -52 c-6 -86 -15 -107 -43 -107 -22 0 -24 2 -13 15 7 9 11 18 8 20 -9 9
-110 25 -157 25 l-46 0 -2 59 c-3 58 -2 60 25 63 23 3 27 8 30 41 l3 37 59 0
59 0 3 -47z m1042 -5 c8 -75 10 -233 2 -230 -3 1 -14 2 -24 2 -10 0 -22 12
-29 30 -6 17 -18 30 -27 30 -14 0 -16 16 -16 110 l0 110 44 0 44 0 6 -52z
m1713 36 c21 -4 22 -7 16 -108 l-6 -105 72 -7 71 -7 0 -46 c0 -25 -3 -63 -6
-83 l-7 -38 -68 0 -69 0 0 -30 0 -30 -103 0 c-57 0 -106 2 -108 4 -6 6 15 249
22 261 4 6 10 51 14 100 4 50 9 93 12 98 4 7 111 1 160 -9z m419 -36 c-4 -24
-9 -63 -12 -88 -11 -98 0 -90 -130 -90 l-115 0 7 98 c3 53 9 100 13 104 10 10
41 14 145 16 l99 3 -7 -43z m1759 -28 c4 -41 9 -45 39 -25 26 17 26 17 26 -8
0 -31 -18 -45 -32 -26 -10 14 -9 11 14 -54 6 -15 9 -30 7 -32 -2 -1 -51 -5
-108 -7 l-105 -3 -14 69 c-16 80 -15 81 62 91 28 3 62 12 76 20 30 16 32 14
35 -25z m-889 -7 c3 -21 12 -57 20 -81 19 -58 18 -71 -8 -76 -46 -8 -169 -26
-182 -26 -8 0 -17 28 -26 85 -7 47 -11 86 -9 88 8 5 164 45 181 46 12 1 19
-10 24 -36z m-3235 -56 c14 -12 33 -34 42 -49 10 -16 24 -28 32 -28 8 0 15 -6
15 -12 0 -7 3 -23 6 -35 6 -21 3 -23 -40 -23 -49 0 -52 4 -36 46 10 25 9 26
-12 19 -46 -14 -77 -17 -93 -8 -14 8 -12 12 15 25 19 9 28 18 21 22 -6 4 -11
20 -11 37 0 36 23 38 61 6z m-1450 -62 c3 -14 13 -21 37 -23 31 -3 32 -5 32
-47 0 -29 -5 -45 -15 -49 -8 -3 -15 -15 -15 -26 0 -29 -18 -60 -34 -60 -9 0
-17 16 -21 41 -4 22 -13 43 -21 46 -11 4 -14 27 -14 95 l0 91 24 -24 c13 -13
25 -33 27 -44z m1879 37 c0 -25 -6 -30 -39 -41 -22 -6 -53 -27 -70 -46 -31
-36 -45 -42 -56 -25 -10 16 5 50 21 50 8 0 19 10 24 23 15 36 34 55 60 60 55
10 60 8 60 -21z m6730 -93 l0 -120 -27 3 -28 3 -3 118 -3 117 31 0 30 0 0
-121z m-209 58 c14 -18 29 -42 33 -55 4 -12 13 -22 21 -22 8 0 16 -19 20 -51
5 -38 12 -53 26 -56 14 -4 19 -14 19 -39 0 -30 -3 -34 -25 -34 -20 0 -25 5
-25 25 0 20 -5 25 -24 25 -16 0 -27 7 -31 20 -3 11 -12 20 -20 20 -15 0 -25
31 -25 80 0 24 -8 42 -24 57 -13 13 -26 32 -29 43 -4 17 0 20 26 20 24 0 39
-8 58 -33z m-253 -27 c11 -12 29 -19 43 -18 18 2 25 -2 27 -19 2 -13 12 -23
25 -25 15 -2 26 -16 37 -44 15 -42 17 -44 45 -44 9 0 15 -9 15 -23 0 -12 9
-30 20 -40 11 -9 20 -27 20 -40 0 -23 -1 -23 -137 -26 -141 -2 -174 -7 -277
-42 -32 -11 -60 -18 -63 -16 -9 10 94 105 117 108 17 3 26 11 28 27 3 21 8 23
50 22 88 -3 132 0 132 9 0 15 -101 78 -136 86 -20 4 -34 14 -37 26 -4 16 -14
19 -55 19 -36 0 -52 4 -56 16 -11 29 -6 33 47 37 125 8 136 8 155 -13z m-6228
-35 c0 -23 -4 -25 -44 -25 -25 0 -47 4 -50 8 -8 13 8 30 34 35 54 10 60 8 60
-18z m-1320 -5 c0 -5 9 -10 19 -10 13 0 21 -8 23 -22 2 -17 11 -24 31 -26 24
-3 27 -8 27 -38 l0 -34 -110 0 -110 0 0 30 c0 29 -1 30 -50 30 -52 0 -65 15
-35 40 8 7 15 19 15 26 0 11 21 14 95 14 57 0 95 -4 95 -10z m-410 -119 c0
-72 -6 -81 -51 -81 -17 0 -47 -46 -36 -56 1 -2 53 0 114 4 l112 7 3 -25 c2
-20 9 -26 34 -28 26 -3 32 -9 41 -42 7 -29 7 -40 -1 -40 -6 -1 -67 -3 -136 -5
-69 -2 -158 -7 -197 -11 l-73 -6 0 25 c0 16 6 27 17 29 10 2 18 12 18 23 0 12
9 21 25 25 24 6 42 40 21 40 -7 0 -11 27 -11 70 0 66 2 71 25 80 18 7 25 17
25 35 0 22 4 25 35 25 l35 0 0 -69z m-287 -21 c-2 -125 -14 -211 -29 -217 -23
-9 -44 17 -44 54 0 19 -6 36 -14 39 -18 7 -27 56 -20 105 5 30 12 41 30 45 14
4 24 14 24 23 0 24 10 32 35 29 18 -3 20 -9 18 -78z m527 -4 c0 -19 -7 -41
-15 -50 -15 -15 -85 -39 -92 -32 -2 2 -1 26 3 54 6 45 9 51 33 55 68 10 71 9
71 -27z m955 24 c3 -5 1 -10 -4 -10 -6 0 -11 5 -11 10 0 6 2 10 4 10 3 0 8 -4
11 -10z m365 -10 c112 0 207 -3 212 -6 4 -3 8 -17 8 -32 0 -15 7 -36 15 -46 8
-11 15 -32 15 -48 0 -15 4 -28 9 -28 5 0 16 -21 24 -47 25 -79 27 -94 12 -100
-10 -3 -6 -12 16 -32 23 -21 32 -41 39 -87 6 -32 10 -60 10 -61 0 -2 6 -3 14
-3 9 0 16 -18 20 -50 4 -28 9 -57 12 -65 5 -13 -7 -15 -76 -15 l-82 0 14 -22
c13 -19 26 -23 82 -26 44 -2 66 1 66 8 0 7 6 5 15 -3 8 -9 19 -17 23 -19 5 -1
16 -37 24 -78 12 -63 18 -75 36 -78 17 -3 22 -12 28 -58 5 -43 10 -54 25 -54
20 0 24 -4 33 -42 l6 -28 -380 0 -380 0 0 25 c0 22 4 25 35 25 l35 0 0 50 0
50 45 0 c45 0 45 0 45 35 l0 35 59 0 60 0 3 33 c3 32 4 32 61 35 46 2 57 6 57
20 -1 44 11 43 -549 38 l-532 -5 3 57 c3 54 4 57 33 63 17 4 24 7 18 8 -9 1
-13 18 -13 52 l0 51 70 -4 c67 -3 70 -2 70 20 0 19 5 22 40 22 l40 0 0 49 0
50 243 4 c133 3 248 6 255 8 6 1 12 11 12 21 0 12 -7 18 -24 18 -33 0 -46 38
-20 57 11 8 27 12 37 9 20 -5 22 5 5 22 -12 12 -95 16 -122 6 -10 -4 -16 -18
-16 -39 0 -68 10 -65 -231 -65 -208 0 -244 -5 -204 -28 13 -7 12 -10 -10 -20
-19 -9 -25 -19 -25 -42 l0 -30 -333 0 c-184 0 -336 2 -338 5 -3 2 -3 20 -1 40
4 35 5 35 52 35 42 0 49 3 54 25 7 26 47 40 102 33 25 -3 29 -7 27 -30 -2 -34
12 -36 37 -6 16 21 21 21 71 10 76 -16 149 -23 124 -12 -15 7 -10 9 25 9 34 0
40 -3 25 -9 -13 -6 9 -9 66 -9 69 -1 86 2 86 14 0 8 -6 16 -14 19 -7 3 -13 12
-13 20 0 11 -14 16 -52 18 -46 3 -53 6 -56 26 -3 21 -7 22 -109 22 l-105 0 7
48 c4 26 12 50 18 54 7 4 59 8 117 9 80 2 93 4 55 8 -45 6 -47 7 -20 13 37 8
286 9 298 1 5 -3 3 -9 -4 -14 -8 -5 32 -9 99 -9 l112 0 0 35 0 35 56 0 c34 0
53 4 49 10 -4 6 2 7 18 1 13 -5 115 -10 227 -11z m1014 -16 c9 -3 16 -15 16
-25 0 -11 8 -22 18 -26 9 -3 29 -19 44 -35 15 -15 36 -28 47 -28 11 0 22 -9
26 -20 4 -14 15 -20 34 -20 16 0 40 -11 55 -25 20 -19 38 -25 72 -25 l44 0 0
-60 c0 -57 -1 -60 -25 -60 -24 0 -25 -2 -25 -67 0 -117 11 -203 26 -203 8 0
14 -8 14 -17 0 -10 3 -28 6 -40 6 -21 3 -23 -34 -23 -35 0 -39 -2 -35 -20 4
-14 14 -20 35 -20 27 0 30 -3 24 -22 -3 -13 -6 -33 -6 -45 0 -21 -5 -23 -50
-23 -42 0 -50 -3 -50 -19 0 -22 -26 -31 -87 -31 l-43 0 0 102 c0 56 -6 129
-14 162 -8 34 -26 117 -41 186 -14 69 -32 148 -40 175 -23 86 -45 189 -45 213
0 23 7 26 34 16z m1446 -222 c0 -75 9 -82 100 -82 50 0 80 -4 80 -11 0 -6 38
-10 108 -8 l107 1 -2 -28 c-2 -16 -5 -50 -9 -76 -5 -39 -3 -49 10 -54 12 -5
16 -20 16 -65 0 -59 0 -59 30 -59 27 0 30 -3 30 -30 l0 -30 -157 -2 c-87 -1
-221 -2 -298 -3 l-140 0 -3 27 c-2 20 2 27 18 30 11 2 21 6 20 11 0 4 0 68 0
142 l0 135 -25 6 c-23 6 -25 10 -25 70 0 58 2 64 23 68 12 3 40 9 62 14 48 10
55 3 55 -56z m960 43 c0 -10 -10 -15 -27 -15 l-28 0 25 14 c14 8 26 14 28 15
1 1 2 -6 2 -14z m3410 -125 c0 -15 -7 -20 -25 -20 -22 0 -25 -4 -25 -35 0 -34
-1 -35 -40 -35 -39 0 -40 -1 -40 -34 0 -30 -3 -35 -27 -38 -23 -2 -29 -8 -31
-35 -3 -27 -7 -33 -28 -33 -20 0 -24 -5 -24 -30 0 -28 -2 -30 -40 -30 -38 0
-40 -2 -40 -30 l0 -31 -100 2 -100 1 0 29 c0 26 -3 28 -42 31 l-43 3 -5 55
c-5 53 -6 55 -37 58 -28 3 -32 7 -35 35 l-3 32 -96 -1 -95 -1 -11 56 c-6 31
-8 59 -6 64 2 4 204 7 449 7 437 0 444 0 444 -20z m-8765 -110 c20 -8 26 -15
22 -30 -5 -20 3 -20 511 -22 l517 -3 3 -37 c3 -31 0 -37 -20 -40 -17 -2 -23
-10 -23 -28 0 -21 -5 -26 -32 -28 -29 -3 -33 -7 -33 -32 l0 -29 -182 2 c-181
2 -183 2 -186 25 -2 12 -11 22 -20 22 -9 1 -221 0 -469 0 -438 -1 -453 0 -453
18 0 17 11 20 92 26 50 3 124 6 164 6 92 0 104 5 104 41 0 29 -1 29 -58 29
l-58 0 1 45 0 45 47 0 c26 0 59 -5 73 -10z m3615 -209 c0 -29 -1 -30 -50 -28
-47 2 -50 3 -50 30 0 26 2 27 50 27 49 0 50 -1 50 -29z m-4000 -51 c0 -5 -4
-10 -10 -10 -5 0 -10 5 -10 10 0 6 5 10 10 10 6 0 10 -4 10 -10z m4921 -30
l69 0 0 -60 0 -60 -40 0 -40 0 0 -45 c0 -33 -4 -45 -15 -45 -8 0 -15 -4 -15
-10 0 -5 -18 -10 -40 -10 -39 0 -40 -1 -40 -35 l0 -35 -80 0 -80 0 0 56 c0 60
-13 94 -35 94 -12 0 -15 16 -15 78 l0 79 125 -5 c102 -4 125 -2 126 9 0 10 2
11 6 2 3 -9 28 -13 74 -13z m22 13 c-7 -2 -19 -2 -25 0 -7 3 -2 5 12 5 14 0
19 -2 13 -5z m307 -13 c0 -15 7 -20 25 -20 21 0 25 -5 25 -30 0 -27 3 -30 30
-30 l30 0 0 -89 c0 -80 -2 -89 -20 -94 -11 -3 -20 -12 -20 -21 0 -14 -25 -16
-215 -16 l-215 0 0 35 c0 35 1 35 43 35 l43 0 -4 34 c-4 33 -2 35 33 42 55 10
75 35 75 93 l0 48 70 7 c38 4 72 11 75 17 11 16 25 10 25 -11z m4028 -7 c-13
-3 -18 -14 -18 -38 0 -30 -3 -33 -35 -39 l-35 -7 0 -74 c0 -43 -4 -75 -10 -75
-5 0 -10 -11 -10 -24 0 -18 -4 -23 -17 -20 -10 3 -54 6 -98 7 l-79 2 -1 30 c0
27 -3 30 -37 33 -32 3 -38 7 -38 26 0 24 -29 36 -86 36 -12 0 -29 7 -37 15 -8
7 -26 17 -41 21 -15 4 -26 13 -26 23 0 10 -11 23 -25 29 -14 6 -25 18 -25 26
0 11 23 16 98 21 53 3 106 7 117 9 32 5 422 4 403 -1z m-7155 -12 l117 -1 0
-45 0 -45 -50 0 -50 0 0 -49 c0 -78 -3 -81 -81 -81 l-69 0 0 -30 0 -30 -391 0
-391 0 4 25 c5 22 2 25 -23 25 -24 0 -28 -4 -26 -22 l2 -23 -392 -3 -393 -2 0
45 0 45 105 0 106 0 5 29 c6 27 9 29 72 35 37 3 88 6 115 6 43 0 47 2 47 25
l0 25 106 0 106 0 -4 35 -4 34 81 3 c71 3 685 2 1008 -1z m6267 -111 c0 -25
-4 -30 -25 -30 -25 0 -25 -1 -25 -89 l0 -88 -139 -1 c-129 -1 -139 1 -144 19
-4 14 -14 19 -41 19 -33 0 -36 2 -36 30 0 30 -1 30 -55 30 -51 0 -55 2 -55 24
0 13 -3 44 -6 70 l-7 46 267 0 266 0 0 -30z m490 -127 c9 -19 23 -33 33 -33
19 0 35 -33 44 -89 8 -45 -15 -38 -40 12 -9 20 -22 37 -27 37 -5 0 -19 18 -30
40 -11 22 -25 40 -30 40 -6 0 -10 7 -10 16 0 28 44 12 60 -23z m-5029 -35 c31
-9 39 -16 39 -34 0 -18 -7 -24 -35 -30 -28 -5 -35 -11 -35 -29 0 -19 -7 -23
-52 -29 -29 -3 -70 -6 -90 -6 l-38 0 0 49 c0 46 2 49 33 61 17 6 41 16 52 20
29 12 82 12 126 -2z m4081 -50 l3 -32 90 0 90 -1 3 -68 3 -67 -845 0 -845 1
-5 42 c-3 23 -7 58 -10 77 -2 19 -7 45 -11 58 l-7 22 765 0 766 0 3 -32z
m-1978 -5 c4 -5 26 -13 49 -18 40 -10 42 -13 45 -53 2 -26 -2 -48 -10 -56 -10
-10 -72 -15 -241 -21 l-227 -7 0 47 c0 52 14 85 36 85 8 0 17 7 20 15 5 12 33
15 163 15 87 0 161 -3 165 -7z m-5524 -23 c0 -23 -25 -27 -33 -6 -5 13 5 23
26 25 4 1 7 -8 7 -19z m8388 -11 c2 -5 20 -11 40 -15 52 -9 92 -27 92 -41 0
-7 4 -13 9 -13 5 0 22 -3 39 -6 27 -6 31 -3 37 25 4 17 13 31 21 31 8 0 22 9
31 20 10 11 23 20 30 20 16 0 17 -26 2 -36 -15 -9 -49 -91 -49 -120 0 -32 -12
-30 -95 11 -85 43 -197 59 -332 49 l-93 -6 0 25 c0 23 5 26 38 29 30 2 38 7
40 26 4 23 5 23 95 16 51 -4 93 -10 95 -15z m-8428 -54 c0 -1 -5 -17 -11 -35
-10 -26 -14 -29 -21 -17 -12 23 0 67 18 60 8 -3 14 -6 14 -8z m520 -60 c0 -12
14 -15 69 -15 60 0 69 -2 74 -20 5 -19 14 -20 255 -20 l251 0 3 -27 3 -28 180
-6 c99 -4 201 -7 228 -8 32 -1 47 -5 47 -15 0 -17 -93 -25 -390 -31 -252 -6
-431 -22 -442 -39 -4 -6 -8 -21 -8 -33 0 -21 -5 -23 -50 -23 l-50 0 0 -35 c0
-34 -1 -35 -38 -35 -22 0 -94 -3 -160 -7 l-122 -6 0 41 c0 40 -2 42 -29 42
-25 0 -30 5 -35 35 -5 26 -3 40 9 51 8 8 15 29 15 45 0 26 -3 29 -34 29 -26 0
-36 -5 -41 -20 -9 -29 -53 -27 -57 3 -2 18 -10 23 -45 25 -39 3 -42 5 -45 35
-2 24 -8 33 -25 35 -15 2 -23 10 -23 23 0 18 9 19 230 19 198 0 230 -2 230
-15z m7440 -110 l0 -65 -105 0 c-98 0 -105 -1 -105 -20 0 -17 -7 -20 -49 -20
-49 0 -50 -1 -53 -32 -3 -33 -4 -33 -60 -36 l-58 -3 0 -33 c0 -31 -3 -34 -40
-40 -38 -6 -40 -8 -41 -44 -1 -20 -1 -40 0 -44 0 -5 -15 -8 -34 -8 -30 0 -35
-3 -35 -25 l0 -24 -465 -1 -465 0 0 45 0 45 -45 0 c-43 0 -45 1 -45 30 0 28
-3 30 -35 30 -33 0 -35 2 -35 34 0 32 3 35 33 38 20 2 32 8 32 18 0 11 13 16
48 18 45 3 47 5 47 33 0 28 1 29 49 29 l50 0 3 43 3 42 588 0 587 0 0 22 c0
24 18 28 158 31 l72 2 0 -65z m771 56 c-8 -5 -20 -7 -28 -4 -21 8 -15 13 15
13 20 0 23 -3 13 -9z m9 -19 c0 -5 -7 -9 -15 -9 -8 0 -12 4 -9 9 3 4 9 8 15 8
5 0 9 -4 9 -8z m-8606 -88 c9 -3 16 -15 16 -25 0 -14 7 -19 25 -19 20 0 25 -5
25 -25 0 -18 7 -26 25 -31 14 -3 25 -12 25 -19 0 -9 -24 -4 -82 16 -67 23
-108 29 -216 35 -73 4 -135 11 -139 17 -4 6 5 8 21 5 18 -4 29 -1 32 8 2 8 6
21 9 29 4 12 26 15 124 15 66 0 126 -3 135 -6z m1838 -124 c196 0 197 0 200
-22 l3 -23 482 -3 482 -2 3 -98 c2 -53 2 -114 0 -134 l-3 -38 -705 -2 c-387
-1 -712 -2 -721 -2 -15 -1 -19 9 -21 52 -3 45 -7 55 -27 64 -16 7 -27 22 -31
45 -5 28 -10 33 -34 33 -25 0 -29 4 -32 33 -3 28 -6 32 -30 29 -18 -2 -28 1
-28 10 0 7 -7 26 -15 42 l-15 29 147 -6 c82 -4 237 -7 345 -7z m4238 -70 c0
-39 1 -40 35 -40 31 0 35 -3 35 -26 0 -23 3 -25 33 -22 28 3 32 0 35 -23 3
-22 -2 -27 -29 -33 -17 -3 -290 -6 -605 -6 l-574 0 0 40 0 40 200 0 c169 0
202 2 206 15 5 12 30 15 134 15 143 0 160 3 153 29 -4 15 4 19 58 24 34 4 86
7 115 7 29 0 56 5 59 10 3 6 37 10 76 10 l69 0 0 -40z"/>
<path d="M7434 7765 c4 -54 9 -102 12 -107 4 -6 2 -13 -4 -17 -7 -4 -6 -12 3
-24 10 -14 18 -16 39 -7 14 5 26 15 26 21 0 17 42 48 66 49 33 0 81 28 87 50
3 11 2 20 -3 20 -4 0 -10 8 -12 18 -3 10 -27 34 -54 52 -38 26 -62 35 -107 38
l-58 5 5 -98z"/>
<path d="M7398 7585 c-2 -33 0 -45 11 -45 9 0 11 7 8 22 -4 14 0 26 10 33 15
11 15 13 -4 24 -20 10 -21 8 -25 -34z"/>
<path d="M7433 7548 c-2 -25 0 -27 12 -14 18 18 19 32 3 39 -8 3 -14 -6 -15
-25z"/>
<path d="M7336 7482 c-3 -6 -2 -13 4 -17 5 -3 10 -15 10 -26 0 -23 15 -25 24
-3 9 23 7 34 -5 34 -5 0 -7 -4 -4 -10 3 -5 4 -10 0 -10 -3 0 -9 10 -14 22 -5
13 -10 17 -15 10z"/>
<path d="M7256 7427 c3 -10 9 -15 12 -12 3 3 0 11 -7 18 -10 9 -11 8 -5 -6z"/>
<path d="M6050 7660 c-8 -14 -21 -20 -45 -20 -22 0 -43 -8 -55 -20 -11 -11
-27 -20 -35 -20 -19 0 -37 -64 -33 -120 l3 -45 215 -5 c173 -4 221 -9 245 -22
17 -9 57 -24 89 -34 33 -10 66 -26 75 -35 9 -10 29 -21 45 -25 l29 -7 -6 48
c-4 26 -7 56 -7 65 0 10 -9 20 -20 23 -11 3 -20 14 -20 25 0 28 -29 82 -45 82
-8 0 -15 10 -17 23 -2 14 -11 23 -24 25 -12 2 -24 12 -27 23 -3 13 -14 19 -31
19 -19 0 -26 5 -26 20 0 19 -7 20 -150 20 -139 0 -150 -1 -160 -20z"/>
<path d="M6078 7343 c-18 -3 -28 -11 -30 -26 -2 -12 -9 -23 -15 -23 -7 -1 -22
-2 -33 -3 -14 -1 -20 -8 -20 -26 0 -18 -5 -25 -19 -25 -20 0 -31 -18 -31 -51
0 -10 -7 -19 -15 -19 -12 0 -15 -14 -15 -65 0 -36 4 -65 10 -65 16 0 49 41 55
69 4 14 20 37 37 50 l30 25 -7 -25 c-9 -27 -8 -240 1 -276 4 -13 10 -23 15
-23 5 0 9 -7 9 -15 0 -8 4 -15 9 -15 5 0 11 -10 13 -22 3 -22 7 -23 126 -26
119 -3 122 -2 122 19 0 12 8 23 20 26 10 3 22 15 26 26 4 12 13 28 21 36 12
12 14 39 11 142 -3 120 -3 127 13 113 10 -9 23 -30 30 -47 7 -18 21 -40 31
-50 11 -11 18 -32 18 -57 0 -38 2 -40 30 -40 l30 0 0 65 c0 59 -2 65 -20 65
-18 0 -20 4 -14 36 5 30 3 36 -14 40 -11 3 -24 16 -30 30 -15 30 -84 104 -98
104 -7 0 -14 6 -17 14 -13 33 -172 55 -279 39z m70 -176 l3 -68 -32 3 c-29 3
-34 8 -50 55 -13 39 -15 54 -6 61 18 14 40 21 62 19 18 -2 20 -10 23 -70z"/>
<path d="M4668 6883 c7 -3 16 -2 19 1 4 3 -2 6 -13 5 -11 0 -14 -3 -6 -6z"/>
<path d="M5254 6863 c-12 -2 -26 -15 -32 -29 -8 -16 -20 -24 -37 -24 -30 0
-40 -29 -33 -100 4 -42 12 -55 56 -100 l52 -53 103 7 c141 9 165 14 173 38 3
11 1 25 -5 31 -21 21 -228 64 -283 59 -27 -3 -28 -1 -28 42 0 42 2 46 25 46
14 0 25 5 25 10 0 6 17 10 38 10 60 0 82 10 82 35 0 17 -7 24 -31 29 -33 6
-70 6 -105 -1z m3 -189 c-3 -3 -12 -4 -19 -1 -8 3 -5 6 6 6 11 1 17 -2 13 -5z"/>
<path d="M5426 6814 c-3 -8 -11 -12 -17 -8 -8 4 -9 3 -5 -4 4 -7 20 -12 37
-12 22 0 29 5 29 20 0 24 -35 28 -44 4z"/>
<path d="M5953 6493 c-27 -4 -33 -9 -33 -29 0 -20 -5 -24 -27 -24 -16 0 -63
-7 -106 -15 -108 -21 -427 -21 -522 0 -38 8 -80 15 -91 15 -15 0 -24 8 -28 25
-5 21 -12 25 -46 25 -30 0 -40 -4 -45 -20 -8 -27 1 -40 30 -40 19 0 24 -7 30
-40 4 -22 11 -40 16 -40 5 0 17 -18 26 -40 10 -22 21 -40 25 -40 5 0 8 -13 8
-30 0 -23 4 -30 20 -30 15 0 20 -7 20 -24 0 -16 7 -27 20 -31 11 -3 21 -11 21
-16 1 -5 2 -14 3 -19 1 -14 74 -80 88 -80 6 0 17 -8 24 -17 18 -26 220 -32
269 -9 18 9 40 16 48 16 9 0 17 10 19 23 2 17 11 23 34 25 22 2 35 11 42 28 8
16 20 24 36 24 17 0 27 7 32 22 4 12 20 33 35 47 16 14 29 31 29 38 0 7 9 18
20 25 11 7 20 18 20 25 0 7 7 13 15 13 8 0 17 14 21 35 5 28 11 35 30 35 21 0
24 5 24 34 0 26 -5 35 -21 39 -12 3 -18 10 -14 17 8 13 -13 41 -29 38 -6 0
-26 -3 -43 -5z m-30 -135 c-20 -40 -30 -48 -65 -48 -21 0 -28 -5 -28 -20 0
-14 -9 -21 -37 -25 -21 -3 -49 -8 -63 -11 -94 -19 -174 -24 -279 -15 -124 9
-166 22 -174 52 -3 11 -14 19 -25 19 -13 0 -22 9 -26 26 -4 15 -6 28 -4 29 2
2 26 -1 53 -5 92 -16 411 -10 530 10 61 9 115 18 122 19 8 1 6 -9 -4 -31z"/>
<path d="M6695 6239 c-9 -14 -2 -20 14 -10 8 6 9 11 3 15 -6 3 -14 1 -17 -5z"/>
<path d="M6755 6230 c-3 -5 -5 -10 -3 -11 19 -4 51 -9 47 -6 -2 1 -11 8 -21
15 -11 9 -18 10 -23 2z"/>
<path d="M6720 6209 c0 -5 5 -7 10 -4 6 3 10 8 10 11 0 2 -4 4 -10 4 -5 0 -10
-5 -10 -11z"/>
<path d="M1168 5513 c6 -2 18 -2 25 0 6 3 1 5 -13 5 -14 0 -19 -2 -12 -5z"/>
<path d="M1288 5488 c-6 -17 1 -38 13 -38 5 0 9 11 9 25 0 26 -14 34 -22 13z"/>
<path d="M1325 5430 c-4 -6 10 -10 34 -10 23 0 41 5 41 10 0 6 -15 10 -34 10
-19 0 -38 -4 -41 -10z"/>
<path d="M1456 5331 c-12 -18 24 -32 76 -29 41 2 54 7 56 21 3 15 -5 17 -62
17 -36 0 -67 -4 -70 -9z"/>
<path d="M1610 5255 c0 -8 6 -15 13 -15 8 0 7 -4 -3 -10 -11 -7 -6 -10 21 -10
32 0 37 3 37 25 0 22 -5 25 -34 25 -24 0 -34 -5 -34 -15z"/>
<path d="M1690 5185 c0 -20 5 -25 25 -25 20 0 25 5 25 25 0 20 -5 25 -25 25
-20 0 -25 -5 -25 -25z"/>
<path d="M1828 4963 c7 -3 16 -2 19 1 4 3 -2 6 -13 5 -11 0 -14 -3 -6 -6z"/>
<path d="M1927 4901 c-14 -17 -28 -27 -31 -24 -3 4 -6 -8 -6 -25 0 -22 -5 -32
-15 -32 -9 0 -15 -9 -15 -25 0 -24 2 -24 48 -19 63 8 73 11 71 26 -4 21 12 68
23 68 5 0 6 5 3 10 -3 6 2 10 11 10 16 0 16 1 -2 15 -19 15 -19 15 1 9 16 -5
17 -4 5 5 -28 20 -67 12 -93 -18z"/>
<path d="M2001 4754 c0 -11 3 -14 6 -6 3 7 2 16 -1 19 -3 4 -6 -2 -5 -13z"/>
<path d="M2062 4736 c-37 -21 -37 -26 3 -26 30 0 35 3 26 13 -6 8 -8 17 -4 20
9 9 2 7 -25 -7z"/>
<path d="M2100 4663 c0 -16 4 -34 9 -42 5 -8 8 2 7 28 -1 45 -16 58 -16 14z"/>
<path d="M4340 3821 c0 -25 3 -28 25 -23 18 3 25 11 25 28 0 19 -5 24 -25 24
-21 0 -25 -5 -25 -29z"/>
<path d="M3700 3823 c0 -15 15 -16 45 -3 16 6 17 9 5 13 -26 9 -50 4 -50 -10z"/>
<path d="M4857 3599 c-3 -35 -3 -110 0 -166 l6 -103 124 0 123 0 0 160 0 160
-72 0 c-40 0 -96 3 -124 6 l-51 6 -6 -63z"/>
<path d="M4823 3496 c1 -19 5 -32 10 -29 10 6 9 63 -2 63 -5 0 -9 -15 -8 -34z"/>
<path d="M7900 2020 c0 -5 -8 -10 -18 -10 -12 0 -17 -8 -18 -27 0 -16 -1 -49
-2 -75 l-2 -48 -170 0 -170 0 0 -29 c0 -24 5 -30 30 -34 27 -6 30 -10 30 -47
l0 -40 40 0 c39 0 40 -1 40 -35 0 -19 5 -35 10 -35 6 0 10 -14 10 -32 l0 -31
-138 7 c-116 5 -144 4 -170 -10 -18 -8 -41 -13 -52 -9 -18 6 -20 2 -20 -34 0
-54 -15 -92 -34 -85 -11 4 -15 -3 -18 -27 -2 -26 -9 -35 -28 -39 -24 -6 -25
-9 -28 -98 l-3 -92 116 0 c70 0 115 -4 115 -10 0 -5 -4 -10 -10 -10 -5 0 -10
-6 -10 -13 0 -18 40 -19 47 -1 3 8 13 15 22 15 9 1 3 4 -14 8 -23 5 -31 12
-33 33 -3 26 -6 27 -65 30 l-62 3 0 70 0 70 398 3 397 2 0 90 c0 89 0 90 -25
90 -18 0 -25 5 -25 20 0 19 -7 20 -130 20 l-130 0 0 46 c0 46 0 46 -29 41 -31
-7 -51 7 -51 35 0 10 -11 23 -24 30 -27 12 -42 38 -27 47 5 4 120 6 256 6 135
-1 251 2 257 6 6 4 8 15 4 24 -5 15 -19 17 -114 14 l-107 -4 -3 75 c-2 62 -6
78 -22 88 -12 7 -20 8 -20 2z m80 -520 l0 -50 -306 0 -305 0 3 43 3 42 90 6
c50 3 186 6 303 7 l212 2 0 -50z"/>
<path d="M2398 1803 c12 -2 30 -2 40 0 9 3 -1 5 -23 4 -22 0 -30 -2 -17 -4z"/>
<path d="M3026 1552 c-3 -5 7 -9 22 -9 15 0 32 -2 37 -3 6 -1 21 -2 35 -1 20
1 22 3 10 11 -18 12 -97 13 -104 2z"/>
<path d="M4168 1613 c7 -3 16 -2 19 1 4 3 -2 6 -13 5 -11 0 -14 -3 -6 -6z"/>
<path d="M2203 10173 c3 -58 6 -67 26 -74 18 -7 22 -15 19 -41 -3 -32 -2 -33
37 -33 l40 0 0 45 c0 39 3 45 23 48 16 3 22 10 22 28 0 24 0 24 110 24 l110 0
0 -25 c0 -18 5 -25 19 -25 21 0 31 -19 31 -56 0 -21 4 -24 40 -24 40 0 40 0
40 39 0 40 20 71 45 71 8 0 17 9 20 20 6 18 15 20 95 20 69 0 89 -3 94 -15 3
-8 16 -15 29 -15 22 0 25 -5 30 -59 3 -33 8 -64 12 -70 3 -6 31 -11 61 -11 50
0 54 -2 54 -24 0 -40 11 -56 36 -56 24 0 24 0 24 -116 l0 -116 -25 6 c-22 6
-25 3 -25 -23 0 -23 -5 -30 -22 -33 -15 -2 -24 -11 -26 -25 -3 -20 -9 -23 -53
-23 -48 0 -49 1 -49 30 0 18 -6 33 -15 36 -8 4 -12 10 -9 15 3 6 -28 9 -78 7
l-83 -3 -3 -37 -3 -38 49 0 c59 0 62 -5 62 -100 l0 -68 64 -4 c81 -4 96 -1 96
21 0 36 20 41 162 41 l138 0 0 -35 0 -35 55 0 55 0 0 40 0 40 -49 0 c-49 0
-50 1 -53 33 l-3 32 -65 0 c-36 0 -82 2 -103 3 l-38 2 20 26 c12 15 21 37 21
50 0 20 5 24 30 24 l31 0 -3 133 -3 132 -27 3 c-25 3 -28 8 -28 38 0 30 -3 34
-25 34 -20 0 -25 5 -25 24 0 25 -16 36 -55 36 -20 0 -24 6 -27 38 -3 32 -7 37
-30 40 -22 3 -27 9 -30 35 l-3 32 -163 3 -164 3 -11 -30 c-18 -49 -59 -47 -69
4 -3 19 -12 20 -144 23 l-141 3 -6 -31 c-6 -27 -11 -30 -42 -30 -32 0 -35 2
-35 30 0 28 -3 30 -35 30 l-34 0 2 -67z"/>
<path d="M8820 5339 c0 -6 9 -8 21 -4 16 6 20 4 13 -6 -6 -12 -5 -12 9 0 23
18 22 21 -13 21 -16 0 -30 -5 -30 -11z"/>
<path d="M8669 5254 c-7 -8 -6 -14 3 -17 10 -4 10 -6 1 -6 -19 -1 -16 -28 5
-37 27 -12 62 -14 62 -3 0 5 8 9 18 9 16 1 16 2 0 13 -11 9 -14 18 -8 27 5 8
7 17 4 22 -8 12 -73 6 -85 -8z"/>
<path d="M8607 5173 c-12 -11 -8 -23 8 -23 8 0 15 7 15 15 0 16 -12 20 -23 8z"/>
<path d="M8806 5154 c-8 -20 -8 -24 2 -24 4 0 8 9 9 20 2 24 -3 26 -11 4z"/>
<path d="M8515 5100 c3 -6 -1 -7 -10 -4 -11 5 -16 2 -15 -7 4 -29 -1 -37 -20
-32 -21 6 -28 -13 -7 -20 6 -2 5 -3 -3 -2 -8 1 -28 -5 -43 -12 -15 -8 -32 -11
-37 -8 -6 4 -7 -1 -3 -11 5 -13 3 -15 -7 -9 -10 6 -12 4 -7 -7 4 -12 -2 -18
-21 -23 -15 -4 -21 -10 -14 -12 14 -6 16 -23 2 -23 -9 0 -22 -11 -73 -58 -10
-9 -25 -17 -32 -17 -8 0 -14 -4 -14 -10 0 -5 -8 -12 -18 -16 -11 -3 -18 -16
-18 -30 0 -18 -6 -25 -24 -27 -19 -3 -21 -6 -10 -13 11 -7 11 -9 -3 -9 -10 0
-18 -4 -18 -10 0 -5 -6 -10 -13 -10 -7 0 -18 -9 -25 -20 -6 -11 -18 -17 -25
-14 -16 6 -55 -27 -50 -42 5 -16 -40 -64 -61 -64 -9 0 -16 -4 -16 -10 0 -5
-13 -10 -28 -10 -20 0 -32 -8 -45 -30 -17 -29 -17 -30 0 -30 36 0 -14 -33 -55
-36 -32 -2 -68 -17 -125 -51 -4 -3 -3 -11 4 -19 9 -11 6 -14 -17 -14 -22 0
-26 -3 -14 -10 11 -7 11 -10 2 -10 -7 0 -11 -4 -7 -10 3 -5 12 -7 19 -4 8 3
17 0 21 -5 3 -6 11 -9 16 -6 5 4 5 -5 -1 -20 -13 -34 -13 -33 8 -31 9 0 21 7
25 14 4 6 15 12 22 12 8 0 15 4 15 10 0 5 10 14 21 21 17 9 24 8 31 -2 8 -11
9 -10 4 4 -4 14 1 17 24 17 27 0 35 9 31 33 -1 4 7 3 18 -3 28 -14 31 -13 31
13 0 18 -2 19 -10 7 -9 -14 -10 -13 -10 18 0 4 5 8 10 8 6 1 15 2 21 3 5 0 7
6 4 11 -3 6 -1 11 4 11 38 5 62 21 56 37 -4 12 -3 13 10 2 12 -10 15 -9 16 6
1 11 1 23 0 27 -1 5 4 7 11 4 7 -2 12 -9 11 -15 -2 -6 4 -9 13 -5 13 5 13 7 2
14 -11 7 -10 11 2 18 8 5 19 7 25 4 5 -4 7 -2 2 2 -4 5 0 19 8 32 12 17 12 23
3 24 -31 1 31 16 64 15 20 0 34 2 31 7 -2 4 0 7 5 7 5 0 12 10 15 22 5 19 8
20 23 7 12 -9 15 -10 10 -2 -4 7 0 23 8 35 15 21 16 21 16 3 1 -15 6 -11 20
15 11 19 19 31 20 26 0 -6 6 -4 12 2 10 10 10 15 -2 22 -13 8 -13 10 1 10 9 0
19 7 23 15 3 8 12 12 21 9 15 -6 19 3 16 42 -2 17 3 20 32 16 23 -3 37 2 48
14 8 11 9 15 2 10 -7 -4 -13 -3 -13 2 0 6 7 13 16 16 8 3 13 2 10 -3 -3 -4 1
-17 9 -27 8 -11 14 -14 15 -6 0 6 7 12 16 12 9 0 18 9 21 20 3 11 10 17 17 13
6 -3 2 5 -10 18 -34 39 -36 57 -8 53 13 -1 22 2 18 7 -3 5 -12 9 -21 9 -13 0
-13 3 -3 15 7 9 18 14 24 12 7 -3 12 4 12 14 0 11 -4 19 -7 19 -4 0 -11 9 -14
20 -4 11 -15 20 -26 20 -11 0 -17 -4 -14 -10z m-79 -129 c-4 -6 -14 -7 -23 -4
-15 6 -14 7 3 13 22 9 29 6 20 -9z m35 0 c5 9 9 10 9 2 0 -6 9 -9 20 -6 16 4
19 2 14 -11 -5 -12 -2 -15 12 -9 12 4 15 3 10 -5 -9 -16 -69 -15 -84 0 -9 9
-12 7 -13 -12 -1 -15 -3 -18 -6 -9 -3 11 -12 15 -31 11 -25 -5 -26 -4 -9 12 9
10 21 15 26 12 5 -3 15 1 22 10 9 12 14 13 17 4 3 -9 7 -9 13 1z"/>
<path d="M8853 5045 c0 -8 4 -15 9 -15 4 0 8 4 8 9 0 6 -4 12 -8 15 -5 3 -9
-1 -9 -9z"/>
<path d="M8335 4740 c-8 -12 17 -23 41 -18 10 1 19 9 22 16 5 15 -54 17 -63 2z"/>
<path d="M7985 4450 c-3 -5 -1 -10 4 -10 6 0 11 5 11 10 0 6 -2 10 -4 10 -3 0
-8 -4 -11 -10z"/>
<path d="M9608 4343 c6 -2 18 -2 25 0 6 3 1 5 -13 5 -14 0 -19 -2 -12 -5z"/>
</g>
</svg>
